<svg width="19" height="19" viewBox="0 0 19 19" fill="none" xmlns="http://www.w3.org/2000/svg">
<path d="M9.56763 0.5C4.59738 0.5 0.567627 4.59285 0.567627 9.64092C0.567627 13.9242 3.47163 17.5082 7.38663 18.5C7.34463 18.3766 7.31763 18.2334 7.31763 18.0559V16.4936C6.95238 16.4936 6.34038 16.4936 6.18663 16.4936C5.57088 16.4936 5.02338 16.2247 4.75788 15.725C4.46313 15.1697 4.41213 14.3203 3.68163 13.8008C3.46488 13.6279 3.62988 13.4306 3.87963 13.4573C4.34088 13.5898 4.72338 13.9113 5.08338 14.3881C5.44188 14.8657 5.61063 14.9739 6.28038 14.9739C6.60513 14.9739 7.09113 14.9548 7.54863 14.8817C7.79463 14.2472 8.21988 13.6629 8.73963 13.3872C5.74263 13.0741 4.31238 11.5598 4.31238 9.50381C4.31238 8.61866 4.68363 7.76246 5.31438 7.04109C5.10738 6.32505 4.84713 4.86479 5.39388 4.30872C6.74238 4.30872 7.55763 5.19691 7.75338 5.43686C8.42538 5.203 9.16338 5.07046 9.93888 5.07046C10.7159 5.07046 11.4569 5.203 12.1304 5.43838C12.3239 5.19996 13.1399 4.30872 14.4914 4.30872C15.0404 4.86555 14.7771 6.33191 14.5679 7.04642C15.1949 7.76627 15.5639 8.62019 15.5639 9.50381C15.5639 11.5582 14.1359 13.0718 11.1434 13.3864C11.9669 13.8229 12.5676 15.0493 12.5676 15.9733V18.0559C12.5676 18.1351 12.5504 18.1923 12.5414 18.2601C16.0484 17.0116 18.5676 13.6294 18.5676 9.64092C18.5676 4.59285 14.5379 0.5 9.56763 0.5Z" fill="#3092D9"/>
</svg>
