<svg width="24" height="25" viewBox="0 0 24 25" fill="none" xmlns="http://www.w3.org/2000/svg">
<path fill-rule="evenodd" clip-rule="evenodd" d="M11.9541 1.75C9.34077 1.75 7.22227 3.87665 7.22227 6.5C7.22227 9.12335 9.34077 11.25 11.9541 11.25C14.5674 11.25 16.6859 9.12335 16.6859 6.5C16.6859 3.87665 14.5674 1.75 11.9541 1.75ZM8.71652 6.5C8.71652 4.70507 10.166 3.25 11.9541 3.25C13.7421 3.25 15.1916 4.70507 15.1916 6.5C15.1916 8.29493 13.7421 9.75 11.9541 9.75C10.166 9.75 8.71652 8.29493 8.71652 6.5Z" fill="#FAFAFA"/>
<path fill-rule="evenodd" clip-rule="evenodd" d="M8.96557 12.75C6.35226 12.75 4.23376 14.8766 4.23376 17.5C4.23376 20.1234 6.35226 22.25 8.96557 22.25H14.9426C17.5559 22.25 19.6744 20.1234 19.6744 17.5C19.6744 14.8766 17.5559 12.75 14.9426 12.75H8.96557ZM5.72802 17.5C5.72802 15.7051 7.17752 14.25 8.96557 14.25H14.9426C16.7306 14.25 18.1801 15.7051 18.1801 17.5C18.1801 19.2949 16.7306 20.75 14.9426 20.75H8.96557C7.17752 20.75 5.72802 19.2949 5.72802 17.5Z" fill="#FAFAFA"/>
</svg>
