<svg width="24" height="25" viewBox="0 0 24 25" fill="none" xmlns="http://www.w3.org/2000/svg">
<path d="M17.6056 9.97316C17.7873 9.60127 17.6343 9.15193 17.2639 8.96951C16.8934 8.78709 16.4458 8.94068 16.264 9.31256L14.8093 12.2896C14.3584 13.2124 13.0331 13.1673 12.6455 12.216C11.7697 10.067 8.77575 9.96517 7.7571 12.0498L6.30236 15.0268C6.12064 15.3987 6.27364 15.8481 6.6441 16.0305C7.01456 16.2129 7.46218 16.0593 7.64391 15.6874L9.09864 12.7104C9.54955 11.7876 10.8748 11.8327 11.2625 12.784C12.1383 14.933 15.1322 15.0348 16.1509 12.9502L17.6056 9.97316Z" fill="#FAFAFA"/>
<path fill-rule="evenodd" clip-rule="evenodd" d="M16.4004 2.87373C15.2626 2.74999 13.8286 2.74999 11.9991 2.75H11.9089C10.0794 2.74999 8.64531 2.74999 7.50755 2.87373C6.34648 3.00001 5.40572 3.26232 4.60249 3.84815C4.11621 4.20281 3.68858 4.63209 3.33528 5.12024C2.75169 5.92656 2.49038 6.87094 2.36459 8.03648C2.24132 9.17861 2.24133 10.6182 2.24133 12.4548V12.5452C2.24133 14.3818 2.24132 15.8214 2.36459 16.9635C2.49038 18.1291 2.75169 19.0734 3.33528 19.8798C3.68858 20.3679 4.11621 20.7972 4.60249 21.1518C5.40572 21.7377 6.34648 22 7.50755 22.1263C8.64529 22.25 10.0794 22.25 11.9088 22.25H11.9991C13.8285 22.25 15.2627 22.25 16.4004 22.1263C17.5615 22 18.5022 21.7377 19.3055 21.1518C19.7917 20.7972 20.2194 20.3679 20.5727 19.8798C21.1563 19.0734 21.4176 18.1291 21.5434 16.9635C21.6666 15.8214 21.6666 14.3818 21.6666 12.5453V12.4547C21.6666 10.6182 21.6666 9.17859 21.5434 8.03648C21.4176 6.87094 21.1563 5.92656 20.5727 5.12024C20.2194 4.63209 19.7917 4.20281 19.3055 3.84815C18.5022 3.26232 17.5615 3.00001 16.4004 2.87373ZM5.48079 5.06168C5.98684 4.69259 6.63457 4.47745 7.6685 4.365C8.71642 4.25103 10.0697 4.25 11.954 4.25C13.8383 4.25 15.1915 4.25103 16.2394 4.365C17.2734 4.47745 17.9211 4.69259 18.4272 5.06168C18.7866 5.32382 19.1027 5.64111 19.3638 6.00191C19.7315 6.50992 19.9458 7.16013 20.0578 8.19804C20.1713 9.24999 20.1724 10.6084 20.1724 12.5C20.1724 14.3916 20.1713 15.75 20.0578 16.802C19.9458 17.8399 19.7315 18.4901 19.3638 18.9981C19.1027 19.3589 18.7866 19.6762 18.4272 19.9383C17.9211 20.3074 17.2734 20.5225 16.2394 20.635C15.1915 20.749 13.8383 20.75 11.954 20.75C10.0697 20.75 8.71642 20.749 7.6685 20.635C6.63457 20.5225 5.98684 20.3074 5.48079 19.9383C5.12137 19.6762 4.80529 19.3589 4.54415 18.9981C4.17648 18.4901 3.96217 17.8399 3.85015 16.802C3.73661 15.75 3.73559 14.3916 3.73559 12.5C3.73559 10.6084 3.73661 9.24999 3.85015 8.19804C3.96217 7.16013 4.17648 6.50992 4.54415 6.00191C4.80529 5.64111 5.12137 5.32382 5.48079 5.06168Z" fill="#FAFAFA"/>
</svg>
