<svg width="20" height="20" viewBox="0 0 20 20" fill="none" xmlns="http://www.w3.org/2000/svg">
<path d="M10.6247 3.3335C10.6247 2.98832 10.3449 2.7085 9.99967 2.7085C9.6545 2.7085 9.37467 2.98832 9.37467 3.3335L9.37467 9.37516H3.33301C2.98783 9.37516 2.70801 9.65498 2.70801 10.0002C2.70801 10.3453 2.98783 10.6252 3.33301 10.6252H9.37467V16.6668C9.37467 17.012 9.6545 17.2918 9.99967 17.2918C10.3449 17.2918 10.6247 17.012 10.6247 16.6668V10.6252H16.6663C17.0115 10.6252 17.2913 10.3453 17.2913 10.0002C17.2913 9.65498 17.0115 9.37516 16.6663 9.37516H10.6247L10.6247 3.3335Z" fill="white"/>
</svg>
