
<svg width="23" height="23" viewBox="0 0 25 25" fill="none" xmlns="http://www.w3.org/2000/svg">
<path d="M12.6445 11.2639C12.789 11.2454 12.9353 11.2454 13.0798 11.2639C13.31 11.2933 13.567 11.404 13.9672 11.7266C14.3791 12.0587 14.8653 12.5495 15.5717 13.265L17.3123 15.028C17.6028 15.3222 18.0758 15.3243 18.3689 15.0327C18.662 14.7411 18.6641 14.2662 18.3736 13.972L16.6016 12.1773C15.9343 11.5013 15.3888 10.9489 14.9028 10.5571C14.3974 10.1496 13.8845 9.85469 13.2687 9.77591C12.9987 9.74136 12.7255 9.74136 12.4555 9.77591C11.8398 9.85469 11.3268 10.1496 10.8214 10.5571C10.3354 10.9489 9.78998 11.5013 9.1226 12.1773L7.35063 13.972C7.06017 14.2662 7.06228 14.7411 7.35535 15.0327C7.64842 15.3243 8.12147 15.3222 8.41193 15.028L10.1525 13.265C10.859 12.5495 11.3451 12.0587 11.7571 11.7266C12.1572 11.404 12.4143 11.2933 12.6445 11.2639Z" fill="#FAFAFA"/>
</svg>
