<svg width="23" height="23" viewBox="0 0 24 25" fill="none" xmlns="http://www.w3.org/2000/svg">
<path d="M17.5327 11.028C17.8243 10.7338 17.8222 10.2589 17.528 9.96731C17.2338 9.67573 16.7589 9.67784 16.4673 9.97204L14.72 11.735C14.0109 12.4505 13.5228 12.9413 13.1093 13.2734C12.7076 13.596 12.4496 13.7067 12.2185 13.7361C12.0734 13.7546 11.9266 13.7546 11.7815 13.7361C11.5504 13.7067 11.2924 13.596 10.8907 13.2734C10.4772 12.9413 9.98914 12.4505 9.28 11.735L7.53269 9.97204C7.24111 9.67784 6.76624 9.67573 6.47204 9.96731C6.17784 10.2589 6.17573 10.7338 6.46731 11.028L8.24609 12.8227C8.91604 13.4987 9.46359 14.0511 9.95146 14.4429C10.4588 14.8504 10.9737 15.1453 11.5918 15.2241C11.8629 15.2586 12.1371 15.2586 12.4082 15.2241C13.0263 15.1453 13.5412 14.8504 14.0485 14.4429C14.5364 14.0511 15.084 13.4987 15.7539 12.8227L17.5327 11.028Z" fill="#FAFAFA"/>
</svg>
