<svg width="40" height="40" viewBox="0 0 40 40" fill="none" xmlns="http://www.w3.org/2000/svg">
<g clip-path="url(#clip0_227_4619)">
<path d="M19.9998 40C31.0455 40 39.9998 31.0457 39.9998 20C39.9998 8.9543 31.0455 0 19.9998 0C8.95406 0 -0.000244141 8.9543 -0.000244141 20C-0.000244141 31.0457 8.95406 40 19.9998 40Z" fill="#6DA544"/>
<path d="M20 7.82617L36.5217 20.0001L20 32.174L3.47827 20.0001L20 7.82617Z" fill="#FFDA44"/>
<path d="M19.9999 26.9564C23.8419 26.9564 26.9564 23.8419 26.9564 19.9999C26.9564 16.158 23.8419 13.0435 19.9999 13.0435C16.158 13.0435 13.0435 16.158 13.0435 19.9999C13.0435 23.8419 16.158 26.9564 19.9999 26.9564Z" fill="#F0F0F0"/>
<path d="M16.5217 19.5654C15.312 19.5654 14.1446 19.7494 13.0457 20.0908C13.0943 23.8908 16.1884 26.9568 20 26.9568C22.3568 26.9568 24.4384 25.7836 25.6967 23.9905C23.5439 21.2954 20.2313 19.5654 16.5217 19.5654Z" fill="#0052B4"/>
<path d="M26.8276 21.3328C26.9113 20.9012 26.9566 20.456 26.9566 19.9999C26.9566 16.1579 23.842 13.0435 20.0001 13.0435C17.1334 13.0435 14.6724 14.7779 13.6074 17.2543C14.5488 17.0592 15.5235 16.9565 16.5219 16.9565C20.5623 16.9564 24.2174 18.636 26.8276 21.3328Z" fill="#0052B4"/>
</g>
<defs>
<clipPath id="clip0_227_4619">
<rect width="40" height="40" fill="white"/>
</clipPath>
</defs>
</svg>
