<svg width="24" height="25" viewBox="0 0 24 25" fill="none" xmlns="http://www.w3.org/2000/svg">
<path fill-rule="evenodd" clip-rule="evenodd" d="M8.96547 1.75C9.3781 1.75 9.7126 2.08579 9.7126 2.5V3.76061C10.3793 3.75 11.12 3.75 11.943 3.75H11.965C12.7879 3.75 13.5287 3.75 14.1954 3.76061V2.5C14.1954 2.08579 14.5299 1.75 14.9425 1.75C15.3551 1.75 15.6896 2.08579 15.6896 2.5V3.81358C17.1957 3.90837 18.3528 4.15335 19.3055 4.84815C19.7917 5.20281 20.2194 5.63209 20.5727 6.12023C21.1563 6.92656 21.4176 7.87094 21.5434 9.03648C21.6666 10.1786 21.6666 11.6182 21.6666 13.4547V13.5115C21.6666 14.6713 21.6666 15.6686 21.6374 16.5257C21.5734 18.3991 21.3715 19.7761 20.5727 20.8798C20.2194 21.3679 19.7917 21.7972 19.3055 22.1518C18.206 22.9537 16.8343 23.1564 14.9681 23.2206C14.1141 23.25 13.1205 23.25 11.9647 23.25H11.9089C10.0794 23.25 8.64531 23.25 7.50755 23.1263C6.34648 23 5.40572 22.7377 4.60249 22.1518C4.11621 21.7972 3.68858 21.3679 3.33528 20.8798C2.75169 20.0734 2.49038 19.1291 2.36459 17.9635C2.24132 16.8214 2.24132 15.3818 2.24133 13.5452V13.4548C2.24132 11.6182 2.24132 10.1786 2.36459 9.03648C2.49038 7.87094 2.75169 6.92656 3.33528 6.12023C3.68858 5.63209 4.11621 5.20281 4.60249 4.84815C5.55514 4.15335 6.71222 3.90837 8.21834 3.81358V2.5C8.21834 2.08579 8.55284 1.75 8.96547 1.75ZM8.21834 5.31725C6.86151 5.41092 6.07835 5.62585 5.48079 6.06168C5.12137 6.32382 4.80529 6.64111 4.54415 7.00191C4.17648 7.50992 3.96217 8.16013 3.85015 9.19804C3.73661 10.25 3.73559 11.6084 3.73559 13.5C3.73559 15.3916 3.73661 16.75 3.85015 17.802C3.96217 18.8399 4.17648 19.4901 4.54415 19.9981C4.80529 20.3589 5.12137 20.6762 5.48079 20.9383C5.98684 21.3074 6.63457 21.5225 7.6685 21.635C8.71642 21.749 10.0697 21.75 11.954 21.75C12.7991 21.75 13.5397 21.7499 14.1972 21.7392C14.2015 21.2645 14.2162 20.9151 14.2659 20.6005C14.6541 18.1401 16.5763 16.2105 19.0273 15.8208C19.3407 15.771 19.6888 15.7562 20.1616 15.7518C20.1723 15.0918 20.1724 14.3483 20.1724 13.5C20.1724 11.6084 20.1713 10.25 20.0578 9.19804C19.9458 8.16013 19.7315 7.50992 19.3638 7.00191C19.1027 6.64111 18.7866 6.32382 18.4272 6.06168C17.8296 5.62585 17.0464 5.41092 15.6896 5.31725V5.5C15.6896 5.91421 15.3551 6.25 14.9425 6.25C14.5299 6.25 14.1954 5.91421 14.1954 5.5V5.26079C13.5383 5.25005 12.7983 5.25 11.954 5.25C11.1097 5.25 10.3697 5.25005 9.7126 5.26079V5.5C9.7126 5.91421 9.3781 6.25 8.96547 6.25C8.55284 6.25 8.21834 5.91421 8.21834 5.5V5.31725ZM20.1052 17.2528C19.7018 17.2575 19.4653 17.2699 19.261 17.3023C17.4494 17.5904 16.0287 19.0166 15.7417 20.8352C15.7094 21.0402 15.697 21.2776 15.6924 21.6826C17.0475 21.5888 17.83 21.3738 18.4272 20.9383C18.7866 20.6762 19.1027 20.3589 19.3638 19.9981C19.7977 19.3986 20.0118 18.6131 20.1052 17.2528Z" fill="#FAFAFA"/>
<path d="M7.9693 9.5C7.9693 10.0523 7.5233 10.5 6.97313 10.5C6.42297 10.5 5.97697 10.0523 5.97697 9.5C5.97697 8.94772 6.42297 8.5 6.97313 8.5C7.5233 8.5 7.9693 8.94772 7.9693 9.5Z" fill="#FAFAFA"/>
<path d="M7.9693 13.5C7.9693 14.0523 7.5233 14.5 6.97313 14.5C6.42297 14.5 5.97697 14.0523 5.97697 13.5C5.97697 12.9477 6.42297 12.5 6.97313 12.5C7.5233 12.5 7.9693 12.9477 7.9693 13.5Z" fill="#FAFAFA"/>
<path d="M12.9501 9.5C12.9501 10.0523 12.5041 10.5 11.954 10.5C11.4038 10.5 10.9578 10.0523 10.9578 9.5C10.9578 8.94772 11.4038 8.5 11.954 8.5C12.5041 8.5 12.9501 8.94772 12.9501 9.5Z" fill="#FAFAFA"/>
<path d="M12.9501 13.5C12.9501 14.0523 12.5041 14.5 11.954 14.5C11.4038 14.5 10.9578 14.0523 10.9578 13.5C10.9578 12.9477 11.4038 12.5 11.954 12.5C12.5041 12.5 12.9501 12.9477 12.9501 13.5Z" fill="#FAFAFA"/>
<path d="M12.9501 17.5C12.9501 18.0523 12.5041 18.5 11.954 18.5C11.4038 18.5 10.9578 18.0523 10.9578 17.5C10.9578 16.9477 11.4038 16.5 11.954 16.5C12.5041 16.5 12.9501 16.9477 12.9501 17.5Z" fill="#FAFAFA"/>
<path d="M17.931 9.5C17.931 10.0523 17.485 10.5 16.9348 10.5C16.3847 10.5 15.9387 10.0523 15.9387 9.5C15.9387 8.94772 16.3847 8.5 16.9348 8.5C17.485 8.5 17.931 8.94772 17.931 9.5Z" fill="#FAFAFA"/>
<path d="M17.931 13.5C17.931 14.0523 17.485 14.5 16.9348 14.5C16.3847 14.5 15.9387 14.0523 15.9387 13.5C15.9387 12.9477 16.3847 12.5 16.9348 12.5C17.485 12.5 17.931 12.9477 17.931 13.5Z" fill="#FAFAFA"/>
<path d="M7.9693 17.5C7.9693 18.0523 7.5233 18.5 6.97313 18.5C6.42297 18.5 5.97697 18.0523 5.97697 17.5C5.97697 16.9477 6.42297 16.5 6.97313 16.5C7.5233 16.5 7.9693 16.9477 7.9693 17.5Z" fill="#FAFAFA"/>
</svg>
