<svg width="24" height="25" viewBox="0 0 24 25" fill="none" xmlns="http://www.w3.org/2000/svg">
<path fill-rule="evenodd" clip-rule="evenodd" d="M8.96555 1.75C6.35224 1.75 4.23375 3.87665 4.23375 6.5C4.23375 9.12335 6.35224 11.25 8.96555 11.25C11.5788 11.25 13.6973 9.12335 13.6973 6.5C13.6973 3.87665 11.5788 1.75 8.96555 1.75ZM5.728 6.5C5.728 4.70507 7.1775 3.25 8.96555 3.25C10.7536 3.25 12.2031 4.70507 12.2031 6.5C12.2031 8.29493 10.7536 9.75 8.96555 9.75C7.1775 9.75 5.728 8.29493 5.728 6.5Z" fill="#FAFAFA"/>
<path d="M19.6744 8.5C19.6744 8.08579 19.3399 7.75 18.9272 7.75C18.5146 7.75 18.1801 8.08579 18.1801 8.5V10.75H15.9387C15.5261 10.75 15.1916 11.0858 15.1916 11.5C15.1916 11.9142 15.5261 12.25 15.9387 12.25H18.1801V14.5C18.1801 14.9142 18.5146 15.25 18.9272 15.25C19.3399 15.25 19.6744 14.9142 19.6744 14.5V12.25H21.9157C22.3284 12.25 22.6629 11.9142 22.6629 11.5C22.6629 11.0858 22.3284 10.75 21.9157 10.75H19.6744V8.5Z" fill="#FAFAFA"/>
<path fill-rule="evenodd" clip-rule="evenodd" d="M5.97704 12.75C3.36374 12.75 1.24524 14.8766 1.24524 17.5C1.24524 20.1234 3.36374 22.25 5.97704 22.25H11.9541C14.5674 22.25 16.6859 20.1234 16.6859 17.5C16.6859 14.8766 14.5674 12.75 11.9541 12.75H5.97704ZM2.73949 17.5C2.73949 15.7051 4.18899 14.25 5.97704 14.25H11.9541C13.7421 14.25 15.1916 15.7051 15.1916 17.5C15.1916 19.2949 13.7421 20.75 11.9541 20.75H5.97704C4.18899 20.75 2.73949 19.2949 2.73949 17.5Z" fill="#FAFAFA"/>
</svg>
