<svg width="23" height="23" viewBox="0 0 23 23" fill="none" xmlns="http://www.w3.org/2000/svg">
<path fill-rule="evenodd" clip-rule="evenodd" d="M7.80602 3.13453C7.5141 3.11461 7.15852 3.11462 6.73259 3.11462H6.68418C6.25824 3.11462 5.90265 3.11461 5.61073 3.13453C5.30685 3.15526 5.0198 3.19996 4.74151 3.31523C4.09576 3.58271 3.58271 4.09576 3.31523 4.74151C3.19996 5.0198 3.15526 5.30685 3.13453 5.61073C3.11461 5.90265 3.11462 6.25823 3.11462 6.68416V6.73257C3.11462 7.15851 3.11461 7.5141 3.13453 7.80602C3.15526 8.1099 3.19996 8.39695 3.31523 8.67524C3.58271 9.32099 4.09576 9.83404 4.74151 10.1015C5.0198 10.2168 5.30685 10.2615 5.61073 10.2822C5.90265 10.3021 6.25823 10.3021 6.68417 10.3021H6.73258C7.15852 10.3021 7.5141 10.3021 7.80602 10.2822C8.1099 10.2615 8.39695 10.2168 8.67524 10.1015C9.32099 9.83404 9.83404 9.32099 10.1015 8.67524C10.2168 8.39695 10.2615 8.1099 10.2822 7.80602C10.3021 7.5141 10.3021 7.15852 10.3021 6.73258V6.68417C10.3021 6.25823 10.3021 5.90265 10.2822 5.61073C10.2615 5.30685 10.2168 5.0198 10.1015 4.74151C9.83404 4.09576 9.32099 3.58271 8.67524 3.31523C8.39695 3.19996 8.1099 3.15526 7.80602 3.13453ZM5.29162 4.64331C5.36556 4.61268 5.47789 4.58444 5.70859 4.56869C5.94574 4.55251 6.25201 4.55212 6.70837 4.55212C7.16474 4.55212 7.47101 4.55251 7.70816 4.56869C7.93886 4.58444 8.05119 4.61268 8.12513 4.64331C8.41865 4.76489 8.65186 4.9981 8.77344 5.29162C8.80407 5.36556 8.83231 5.47789 8.84806 5.70859C8.86424 5.94574 8.86463 6.25201 8.86463 6.70837C8.86463 7.16474 8.86424 7.47101 8.84806 7.70816C8.83231 7.93886 8.80407 8.05119 8.77344 8.12513C8.65186 8.41865 8.41865 8.65186 8.12513 8.77344C8.05119 8.80407 7.93886 8.83231 7.70816 8.84806C7.47101 8.86424 7.16474 8.86463 6.70837 8.86463C6.25201 8.86463 5.94574 8.86424 5.70859 8.84806C5.47789 8.83231 5.36556 8.80407 5.29162 8.77344C4.9981 8.65186 4.76489 8.41865 4.64331 8.12513C4.61268 8.05119 4.58444 7.93886 4.56869 7.70816C4.55251 7.47101 4.55212 7.16474 4.55212 6.70837C4.55212 6.25201 4.55251 5.94574 4.56869 5.70859C4.58444 5.47789 4.61268 5.36556 4.64331 5.29162C4.76489 4.9981 4.9981 4.76489 5.29162 4.64331Z" fill="#FAFAFA"/>
<path fill-rule="evenodd" clip-rule="evenodd" d="M17.3894 3.13453C17.0974 3.11461 16.7419 3.11462 16.3159 3.11462H16.2675C15.8416 3.11462 15.486 3.11461 15.1941 3.13453C14.8902 3.15526 14.6031 3.19996 14.3248 3.31523C13.6791 3.58271 13.166 4.09576 12.8986 4.74151C12.7833 5.0198 12.7386 5.30685 12.7179 5.61073C12.6979 5.90265 12.698 6.25823 12.698 6.68417V6.73258C12.698 7.15852 12.6979 7.5141 12.7179 7.80602C12.7386 8.1099 12.7833 8.39695 12.8986 8.67524C13.166 9.32099 13.6791 9.83404 14.3248 10.1015C14.6031 10.2168 14.8902 10.2615 15.1941 10.2822C15.486 10.3021 15.8416 10.3021 16.2675 10.3021H16.3159C16.7419 10.3021 17.0974 10.3021 17.3894 10.2822C17.6932 10.2615 17.9803 10.2168 18.2586 10.1015C18.9043 9.83404 19.4174 9.32099 19.6848 8.67524C19.8001 8.39695 19.8448 8.1099 19.8656 7.80602C19.8855 7.5141 19.8855 7.15852 19.8855 6.73258V6.68417C19.8855 6.25823 19.8855 5.90265 19.8656 5.61073C19.8448 5.30685 19.8001 5.0198 19.6848 4.74151C19.4174 4.09576 18.9043 3.58271 18.2586 3.31523C17.9803 3.19996 17.6932 3.15526 17.3894 3.13453ZM14.875 4.64331C14.9489 4.61268 15.0612 4.58444 15.2919 4.56869C15.5291 4.55251 15.8353 4.55212 16.2917 4.55212C16.7481 4.55212 17.0543 4.55251 17.2915 4.56869C17.5222 4.58444 17.6345 4.61268 17.7085 4.64331C18.002 4.76489 18.2352 4.9981 18.3568 5.29162C18.3874 5.36556 18.4156 5.47789 18.4314 5.70859C18.4476 5.94574 18.448 6.25201 18.448 6.70837C18.448 7.16474 18.4476 7.47101 18.4314 7.70816C18.4156 7.93886 18.3874 8.05119 18.3568 8.12513C18.2352 8.41865 18.002 8.65186 17.7085 8.77344C17.6345 8.80407 17.5222 8.83231 17.2915 8.84806C17.0543 8.86424 16.7481 8.86463 16.2917 8.86463C15.8353 8.86463 15.5291 8.86424 15.2919 8.84806C15.0612 8.83231 14.9489 8.80407 14.875 8.77344C14.5814 8.65186 14.3482 8.41865 14.2266 8.12513C14.196 8.05119 14.1678 7.93886 14.152 7.70816C14.1358 7.47101 14.1355 7.16474 14.1355 6.70837C14.1355 6.25201 14.1358 5.94574 14.152 5.70859C14.1678 5.47789 14.196 5.36556 14.2266 5.29162C14.3482 4.9981 14.5814 4.76489 14.875 4.64331Z" fill="#FAFAFA"/>
<path fill-rule="evenodd" clip-rule="evenodd" d="M7.80602 12.7179C7.5141 12.6979 7.15852 12.698 6.73258 12.698H6.68417C6.25823 12.698 5.90265 12.6979 5.61073 12.7179C5.30685 12.7386 5.0198 12.7833 4.74151 12.8986C4.09576 13.166 3.58271 13.6791 3.31523 14.3248C3.19996 14.6031 3.15526 14.8902 3.13453 15.1941C3.11461 15.486 3.11462 15.8416 3.11462 16.2675V16.3159C3.11462 16.7418 3.11461 17.0974 3.13453 17.3894C3.15526 17.6932 3.19996 17.9803 3.31523 18.2586C3.58271 18.9043 4.09576 19.4174 4.74151 19.6848C5.0198 19.8001 5.30685 19.8448 5.61073 19.8656C5.90265 19.8855 6.25823 19.8855 6.68417 19.8855H6.73258C7.15852 19.8855 7.5141 19.8855 7.80602 19.8656C8.1099 19.8448 8.39695 19.8001 8.67524 19.6848C9.32099 19.4174 9.83404 18.9043 10.1015 18.2586C10.2168 17.9803 10.2615 17.6932 10.2822 17.3894C10.3021 17.0974 10.3021 16.7419 10.3021 16.3159V16.2675C10.3021 15.8416 10.3021 15.486 10.2822 15.1941C10.2615 14.8902 10.2168 14.6031 10.1015 14.3248C9.83404 13.6791 9.32099 13.166 8.67524 12.8986C8.39695 12.7833 8.1099 12.7386 7.80602 12.7179ZM5.29162 14.2266C5.36556 14.196 5.47789 14.1678 5.70859 14.152C5.94574 14.1358 6.25201 14.1355 6.70837 14.1355C7.16474 14.1355 7.47101 14.1358 7.70816 14.152C7.93886 14.1678 8.05119 14.196 8.12513 14.2266C8.41865 14.3482 8.65186 14.5814 8.77344 14.875C8.80407 14.9489 8.83231 15.0612 8.84806 15.2919C8.86424 15.5291 8.86463 15.8353 8.86463 16.2917C8.86463 16.7481 8.86424 17.0543 8.84806 17.2915C8.83231 17.5222 8.80407 17.6345 8.77344 17.7085C8.65186 18.002 8.41865 18.2352 8.12513 18.3568C8.05119 18.3874 7.93886 18.4156 7.70816 18.4314C7.47101 18.4476 7.16474 18.448 6.70837 18.448C6.25201 18.448 5.94574 18.4476 5.70859 18.4314C5.47789 18.4156 5.36556 18.3874 5.29162 18.3568C4.9981 18.2352 4.76489 18.002 4.64331 17.7085C4.61268 17.6345 4.58444 17.5222 4.56869 17.2915C4.55251 17.0543 4.55212 16.7481 4.55212 16.2917C4.55212 15.8353 4.55251 15.5291 4.56869 15.2919C4.58444 15.0612 4.61268 14.9489 4.64331 14.875C4.76489 14.5814 4.9981 14.3482 5.29162 14.2266Z" fill="#FAFAFA"/>
<path fill-rule="evenodd" clip-rule="evenodd" d="M17.3894 12.7179C17.0974 12.6979 16.7419 12.698 16.3159 12.698H16.2675C15.8416 12.698 15.486 12.6979 15.1941 12.7179C14.8902 12.7386 14.6031 12.7833 14.3248 12.8986C13.6791 13.166 13.166 13.6791 12.8986 14.3248C12.7833 14.6031 12.7386 14.8902 12.7179 15.1941C12.6979 15.486 12.698 15.8416 12.698 16.2675V16.3159C12.698 16.7419 12.6979 17.0974 12.7179 17.3894C12.7386 17.6932 12.7833 17.9803 12.8986 18.2586C13.166 18.9043 13.6791 19.4174 14.3248 19.6848C14.6031 19.8001 14.8902 19.8448 15.1941 19.8656C15.486 19.8855 15.8416 19.8855 16.2675 19.8855H16.3159C16.7419 19.8855 17.0974 19.8855 17.3894 19.8656C17.6932 19.8448 17.9803 19.8001 18.2586 19.6848C18.9043 19.4174 19.4174 18.9043 19.6848 18.2586C19.8001 17.9803 19.8448 17.6932 19.8656 17.3894C19.8855 17.0974 19.8855 16.7419 19.8855 16.3159V16.2675C19.8855 15.8416 19.8855 15.486 19.8656 15.1941C19.8448 14.8902 19.8001 14.6031 19.6848 14.3248C19.4174 13.6791 18.9043 13.166 18.2586 12.8986C17.9803 12.7833 17.6932 12.7386 17.3894 12.7179ZM14.875 14.2266C14.9489 14.196 15.0612 14.1678 15.2919 14.152C15.5291 14.1358 15.8353 14.1355 16.2917 14.1355C16.7481 14.1355 17.0543 14.1358 17.2915 14.152C17.5222 14.1678 17.6345 14.196 17.7085 14.2266C18.002 14.3482 18.2352 14.5814 18.3568 14.875C18.3874 14.9489 18.4156 15.0612 18.4314 15.2919C18.4476 15.5291 18.448 15.8353 18.448 16.2917C18.448 16.7481 18.4476 17.0543 18.4314 17.2915C18.4156 17.5222 18.3874 17.6345 18.3568 17.7085C18.2352 18.002 18.002 18.2352 17.7085 18.3568C17.6345 18.3874 17.5222 18.4156 17.2915 18.4314C17.0543 18.4476 16.7481 18.448 16.2917 18.448C15.8353 18.448 15.5291 18.4476 15.2919 18.4314C15.0612 18.4156 14.9489 18.3874 14.875 18.3568C14.5814 18.2352 14.3482 18.002 14.2266 17.7085C14.196 17.6345 14.1678 17.5222 14.152 17.2915C14.1358 17.0543 14.1355 16.7481 14.1355 16.2917C14.1355 15.8353 14.1358 15.5291 14.152 15.2919C14.1678 15.0612 14.196 14.9489 14.2266 14.875C14.3482 14.5814 14.5814 14.3482 14.875 14.2266Z" fill="#FAFAFA"/>
</svg>
