<svg width="17" height="18" viewBox="0 0 17 18" fill="none" xmlns="http://www.w3.org/2000/svg">
<path d="M11.5248 8.52451L12.001 9.10392L12.001 9.10392L11.5248 8.52451ZM5.22652 8.53255L5.72528 7.97242L5.72528 7.97242L5.22652 8.53255ZM9.46863 13.9062L9.03588 13.2937L9.03588 13.2937L9.46863 13.9062ZM8.09356 14.8776L8.52631 15.4902L8.52631 15.4902L8.09356 14.8776ZM2.92261 6.48107L2.42385 7.0412L2.92261 6.48107ZM14.0184 6.47496L13.5421 5.89556L13.5421 5.89556L14.0184 6.47496ZM11.3333 5.9139C11.7475 5.9139 12.0833 5.57811 12.0833 5.1639C12.0833 4.74969 11.7475 4.4139 11.3333 4.4139L11.3333 5.9139ZM5.66667 4.4139C5.25245 4.4139 4.91667 4.74968 4.91667 5.1639C4.91667 5.57811 5.25245 5.9139 5.66667 5.9139L5.66667 4.4139ZM4.58466 3.08057H12.4555V1.58057H4.58466V3.08057ZM9.03588 13.2937L7.66082 14.2651L8.52631 15.4902L9.90137 14.5188L9.03588 13.2937ZM7.125 14.0276V11.0686H5.625V14.0276H7.125ZM5.72528 7.97242L3.42136 5.92094L2.42385 7.0412L4.72777 9.09267L5.72528 7.97242ZM13.5421 5.89556L11.0486 7.94511L12.001 9.10392L14.4946 7.05437L13.5421 5.89556ZM9.52083 11.1508V12.376H11.0208V11.1508H9.52083ZM11.0486 7.94511C10.0834 8.73839 9.52083 9.91 9.52083 11.1508H11.0208C11.0208 10.3676 11.3756 9.61798 12.001 9.10392L11.0486 7.94511ZM7.125 11.0686C7.125 9.88632 6.61397 8.76373 5.72528 7.97242L4.72777 9.09267C5.3027 9.60461 5.625 10.3222 5.625 11.0686H7.125ZM9.90137 14.5188C10.5997 14.0254 11.0208 13.2305 11.0208 12.376H9.52083C9.52083 12.7322 9.34553 13.0749 9.03588 13.2937L9.90137 14.5188ZM7.66082 14.2651C7.54749 14.3452 7.41425 14.3492 7.2986 14.292C7.18417 14.2354 7.125 14.14 7.125 14.0276H5.625C5.625 15.535 7.34733 16.3231 8.52631 15.4902L7.66082 14.2651ZM1.375 4.71982C1.375 5.60746 1.75874 6.44896 2.42385 7.0412L3.42136 5.92094C3.07 5.60808 2.875 5.17163 2.875 4.71982H1.375ZM14.125 4.68082C14.125 5.14333 13.9156 5.58862 13.5421 5.89556L14.4946 7.05437C15.2077 6.4682 15.625 5.60096 15.625 4.68082H14.125ZM12.4555 3.08057C13.3982 3.08057 14.125 3.8174 14.125 4.68082H15.625C15.625 2.94821 14.1853 1.58057 12.4555 1.58057V3.08057ZM4.58466 1.58057C2.83269 1.58057 1.375 2.96568 1.375 4.71982H2.875C2.875 3.83487 3.61976 3.08057 4.58466 3.08057V1.58057ZM11.3333 4.4139L5.66667 4.4139L5.66667 5.9139L11.3333 5.9139L11.3333 4.4139Z" fill="white"/>
</svg>
