<svg width="23" height="23" viewBox="0 0 23 23" fill="none" xmlns="http://www.w3.org/2000/svg">
<path d="M12.2187 10.5416C12.2187 10.1447 11.897 9.82288 11.5 9.82288C11.103 9.82288 10.7812 10.1447 10.7812 10.5416V16.2916C10.7812 16.6886 11.103 17.0104 11.5 17.0104C11.897 17.0104 12.2187 16.6886 12.2187 16.2916V10.5416Z" fill="#FAFAFA"/>
<path fill-rule="evenodd" clip-rule="evenodd" d="M11.5 1.19788C5.81032 1.19788 1.19792 5.81028 1.19792 11.5C1.19792 17.1896 5.81032 21.802 11.5 21.802C17.1897 21.802 21.8021 17.1896 21.8021 11.5C21.8021 5.81028 17.1897 1.19788 11.5 1.19788ZM2.63542 11.5C2.63542 6.60419 6.60423 2.63538 11.5 2.63538C16.3958 2.63538 20.3646 6.60419 20.3646 11.5C20.3646 16.3957 16.3958 20.3645 11.5 20.3645C6.60423 20.3645 2.63542 16.3957 2.63542 11.5Z" fill="#FAFAFA"/>
<path d="M12.4583 7.66663C12.4583 8.1959 12.0293 8.62496 11.5 8.62496C10.9707 8.62496 10.5417 8.1959 10.5417 7.66663C10.5417 7.13735 10.9707 6.70829 11.5 6.70829C12.0293 6.70829 12.4583 7.13735 12.4583 7.66663Z" fill="#FAFAFA"/>
</svg>
