<svg width="24" height="25" viewBox="0 0 24 25" fill="none" xmlns="http://www.w3.org/2000/svg">
<g clip-path="url(#clip0_240_204)">
<path fill-rule="evenodd" clip-rule="evenodd" d="M11.954 4.5C9.89087 4.5 8.21837 6.17893 8.21837 8.25C8.21837 10.3211 9.89087 12 11.954 12C14.0171 12 15.6896 10.3211 15.6896 8.25C15.6896 6.17893 14.0171 4.5 11.954 4.5ZM9.71262 8.25C9.71262 7.00736 10.7161 6 11.954 6C13.1919 6 14.1954 7.00736 14.1954 8.25C14.1954 9.49264 13.1919 10.5 11.954 10.5C10.7161 10.5 9.71262 9.49264 9.71262 8.25Z" fill="#FAFAFA"/>
<path fill-rule="evenodd" clip-rule="evenodd" d="M8.9655 13.5C6.90237 13.5 5.22987 15.1789 5.22987 17.25C5.22987 19.3211 6.90237 21 8.9655 21H14.9425C17.0056 21 18.6781 19.3211 18.6781 17.25C18.6781 15.1789 17.0056 13.5 14.9425 13.5H8.9655ZM6.72412 17.25C6.72412 16.0074 7.72762 15 8.9655 15H14.9425C16.1804 15 17.1839 16.0074 17.1839 17.25C17.1839 18.4926 16.1804 19.5 14.9425 19.5H8.9655C7.72762 19.5 6.72412 18.4926 6.72412 17.25Z" fill="#FAFAFA"/>
<path d="M7.72242 10.8887C7.5653 10.6353 7.27048 10.5 6.97316 10.5C5.73528 10.5 4.73178 9.49264 4.73178 8.25C4.73178 7.00736 5.73528 6 6.97316 6C7.27048 6 7.5653 5.86473 7.72242 5.61135C7.72937 5.60014 7.73636 5.58896 7.7434 5.57782C8.00499 5.16331 7.87245 4.5764 7.38657 4.5227C7.25083 4.5077 7.11289 4.5 6.97316 4.5C4.91003 4.5 3.23753 6.17893 3.23753 8.25C3.23753 10.3211 4.91003 12 6.97316 12C7.11289 12 7.25083 11.9923 7.38657 11.9773C7.87245 11.9236 8.00499 11.3367 7.7434 10.9222C7.73636 10.911 7.72937 10.8999 7.72242 10.8887Z" fill="#FAFAFA"/>
<path d="M4.69023 18.8169C4.57715 18.6275 4.37754 18.5 4.15758 18.5H3.98466C2.74678 18.5 1.74328 17.4926 1.74328 16.25C1.74328 15.0074 2.74678 14 3.98466 14H4.15758C4.37754 14 4.57715 13.8725 4.69023 13.6831C4.96627 13.2208 4.66672 12.5 4.12979 12.5H3.98466C1.92152 12.5 0.249023 14.1789 0.249023 16.25C0.249023 18.3211 1.92152 20 3.98466 20H4.12979C4.66672 20 4.96627 19.2792 4.69023 18.8169Z" fill="#FAFAFA"/>
<path d="M16.1646 10.9222C15.903 11.3367 16.0356 11.9236 16.5214 11.9773C16.6572 11.9923 16.7951 12 16.9348 12C18.998 12 20.6705 10.3211 20.6705 8.25C20.6705 6.17893 18.998 4.5 16.9348 4.5C16.7951 4.5 16.6572 4.5077 16.5214 4.5227C16.0356 4.5764 15.903 5.16331 16.1646 5.57782C16.1716 5.58896 16.1786 5.60014 16.1856 5.61134C16.3427 5.86472 16.6375 6 16.9348 6C18.1727 6 19.1762 7.00736 19.1762 8.25C19.1762 9.49264 18.1727 10.5 16.9348 10.5C16.6375 10.5 16.3427 10.6353 16.1856 10.8887C16.1786 10.8999 16.1716 10.911 16.1646 10.9222Z" fill="#FAFAFA"/>
<path d="M19.2178 18.8169C18.9417 19.2792 19.2413 20 19.7782 20H19.9234C21.9865 20 23.659 18.3211 23.659 16.25C23.659 14.1789 21.9865 12.5 19.9234 12.5H19.7782C19.2413 12.5 18.9417 13.2208 19.2178 13.6831C19.3309 13.8725 19.5305 14 19.7504 14H19.9234C21.1612 14 22.1647 15.0074 22.1647 16.25C22.1647 17.4926 21.1612 18.5 19.9234 18.5H19.7504C19.5305 18.5 19.3309 18.6275 19.2178 18.8169Z" fill="#FAFAFA"/>
</g>
<defs>
<clipPath id="clip0_240_204">
<rect width="23.908" height="24" fill="white" transform="translate(0 0.5)"/>
</clipPath>
</defs>
</svg>
