<svg width="23" height="23" viewBox="0 0 23 23" fill="none" xmlns="http://www.w3.org/2000/svg">
<path d="M8.54754 2.15625C7.73103 2.15619 7.23366 2.15615 6.80464 2.2241C4.44677 2.59755 2.59753 4.44679 2.22408 6.80466C2.15613 7.23368 2.15617 7.73104 2.15624 8.54756L2.15624 14.4525C2.15617 15.269 2.15613 15.7663 2.22408 16.1954C2.59753 18.5532 4.44677 20.4025 6.80464 20.7759C7.23367 20.8439 7.73103 20.8438 8.54756 20.8438L9.58333 20.8438C10.823 20.8438 11.969 20.4335 12.89 19.7417C13.2074 19.5033 13.2714 19.0528 13.033 18.7354C12.7946 18.418 12.3441 18.3539 12.0267 18.5923C11.346 19.1036 10.5011 19.4063 9.58333 19.4063H8.62499C7.70723 19.4063 7.33203 19.404 7.02951 19.3561C5.28674 19.0801 3.91991 17.7133 3.64389 15.9705C3.59597 15.668 3.59374 15.2928 3.59374 14.375L3.59374 8.62501C3.59374 7.70724 3.59597 7.33205 3.64389 7.02953C3.91991 5.28676 5.28674 3.91993 7.02951 3.6439C7.33203 3.59599 7.70723 3.59376 8.62499 3.59376H9.58333C10.5011 3.59376 11.346 3.89642 12.0267 4.40768C12.3441 4.64608 12.7946 4.58205 13.033 4.26466C13.2714 3.94726 13.2074 3.4967 12.89 3.2583C11.969 2.56649 10.823 2.15626 9.58333 2.15626L8.54754 2.15625Z" fill="#FAFAFA"/>
<path d="M16.7382 7.10348C16.4272 6.85685 15.9751 6.90908 15.7285 7.22012C15.4818 7.53116 15.5341 7.98325 15.8451 8.22987L17.5346 9.56947C18.2093 10.1044 18.6712 10.472 18.985 10.7813L6.70833 10.7813C6.31137 10.7813 5.98958 11.1031 5.98958 11.5C5.98958 11.897 6.31137 12.2188 6.70833 12.2188L18.985 12.2188C18.6712 12.528 18.2093 12.8956 17.5346 13.4305L15.8451 14.7701C15.5341 15.0168 15.4818 15.4689 15.7285 15.7799C15.9751 16.0909 16.4272 16.1432 16.7382 15.8965L18.462 14.5297C19.1065 14.0188 19.6383 13.5971 20.0172 13.2197C20.4059 12.8325 20.7282 12.4026 20.8157 11.8533C20.8344 11.7363 20.8437 11.6183 20.8437 11.5C20.8437 11.3818 20.8344 11.2637 20.8157 11.1467C20.7282 10.5974 20.4059 10.1676 20.0172 9.78029C19.6383 9.4029 19.1065 8.98127 18.4621 8.4703L16.7382 7.10348Z" fill="#FAFAFA"/>
</svg>
