<svg width="18" height="18" viewBox="0 0 18 18" fill="none" xmlns="http://www.w3.org/2000/svg">
<path d="M11.5655 0.672836C12.0083 0.678825 12.2472 1.19371 12.0636 1.57747C11.9669 1.77948 11.7602 1.92548 11.5272 1.92246C11.0841 1.91673 10.5805 1.91663 10.0001 1.91663H8.25012C7.01418 1.91663 6.12669 1.91711 5.43007 1.97132C4.74111 2.02493 4.29684 2.12795 3.93684 2.30265C3.23712 2.6422 2.66822 3.184 2.31169 3.85041C2.12826 4.19327 2.02009 4.61638 1.9638 5.27253C1.90688 5.93598 1.90637 6.7812 1.90637 7.95829V11.4819C1.90637 12.8726 3.09011 14 4.55032 14H5.07686C6.22284 14 7.00646 15.1023 6.58085 16.1156C6.46685 16.387 6.79508 16.6324 7.04485 16.4625L9.32925 14.9085L9.37907 14.8747C10.2183 14.3115 11.2183 14.0063 12.2449 14.0001L12.3192 14C12.6007 14 12.7172 13.9998 12.801 13.996C14.7165 13.9096 16.249 12.4501 16.3397 10.6258C16.3437 10.5458 16.3439 10.4475 16.3439 10.2073V7.95829C16.3439 7.40551 16.3438 6.92591 16.3377 6.50396C16.3346 6.28199 16.4879 6.08513 16.7 5.99307C17.1029 5.81818 17.6436 6.04574 17.6499 6.46743C17.6564 6.90488 17.6564 7.39003 17.6564 7.93028V10.2276C17.6564 10.4413 17.6564 10.5715 17.6507 10.6849C17.528 13.1531 15.4547 15.1277 12.863 15.2446C12.7439 15.25 12.5935 15.25 12.3441 15.25H12.3192L12.2533 15.25C11.4945 15.2547 10.7554 15.4803 10.1351 15.8965L10.0921 15.9257L7.80773 17.4797C6.49129 18.3752 4.76139 17.0819 5.36222 15.6514C5.44298 15.4591 5.29429 15.25 5.07686 15.25H4.55032C2.36523 15.25 0.593872 13.5629 0.593872 11.4819V7.93027C0.593869 6.7872 0.593866 5.89102 0.655658 5.17074C0.71858 4.43729 0.848828 3.83136 1.14225 3.28292C1.62461 2.38131 2.39429 1.64828 3.34098 1.18889C3.91685 0.909442 4.55307 0.785395 5.32319 0.725469C6.0795 0.666619 7.0205 0.666622 8.22076 0.666626H10.0295C10.5968 0.666624 11.1062 0.666623 11.5655 0.672836Z" fill="#FAFAFA"/>
<path fill-rule="evenodd" clip-rule="evenodd" d="M12.8439 2.95829C12.8439 1.69264 13.9212 0.666626 15.2501 0.666626C16.5791 0.666626 17.6564 1.69264 17.6564 2.95829C17.6564 4.22395 16.5791 5.24996 15.2501 5.24996C13.9212 5.24996 12.8439 4.22395 12.8439 2.95829ZM15.2501 1.91663C14.6461 1.91663 14.1564 2.383 14.1564 2.95829C14.1564 3.53359 14.6461 3.99996 15.2501 3.99996C15.8542 3.99996 16.3439 3.53359 16.3439 2.95829C16.3439 2.383 15.8542 1.91663 15.2501 1.91663Z" fill="#FAFAFA"/>
<path d="M5.62512 8.79163C6.10837 8.79163 6.50012 8.41853 6.50012 7.95829C6.50012 7.49806 6.10837 7.12496 5.62512 7.12496C5.14187 7.12496 4.75012 7.49806 4.75012 7.95829C4.75012 8.41853 5.14187 8.79163 5.62512 8.79163Z" fill="#FAFAFA"/>
<path d="M9.12512 8.79163C9.60837 8.79163 10.0001 8.41853 10.0001 7.95829C10.0001 7.49806 9.60837 7.12496 9.12512 7.12496C8.64187 7.12496 8.25012 7.49806 8.25012 7.95829C8.25012 8.41853 8.64187 8.79163 9.12512 8.79163Z" fill="#FAFAFA"/>
<path d="M13.5001 7.95829C13.5001 8.41853 13.1084 8.79163 12.6251 8.79163C12.1419 8.79163 11.7501 8.41853 11.7501 7.95829C11.7501 7.49806 12.1419 7.12496 12.6251 7.12496C13.1084 7.12496 13.5001 7.49806 13.5001 7.95829Z" fill="#FAFAFA"/>
</svg>
