<svg width="20" height="20" viewBox="0 0 20 20" fill="none" xmlns="http://www.w3.org/2000/svg">
<path fill-rule="evenodd" clip-rule="evenodd" d="M9.24966 1.0415C6.42003 1.0415 4.23071 3.52153 4.58168 6.32931L4.64781 6.85835C4.74458 7.63247 4.4618 8.40572 3.88846 8.93479C2.70039 10.0311 2.37031 11.7761 3.07586 13.2306L3.16198 13.4082C3.81962 14.7639 5.19404 15.6248 6.7009 15.6248H13.5516C14.8513 15.6248 16.061 14.9608 16.7589 13.8643C17.744 12.3164 17.4831 10.2859 16.1387 9.03731L16.1021 9.00334C15.4867 8.43178 15.1836 7.59911 15.2878 6.76568L15.3417 6.3349C15.693 3.52415 13.5014 1.0415 10.6688 1.0415H9.24966ZM5.82203 6.17426C5.56431 4.11255 7.1719 2.2915 9.24966 2.2915H10.6688C12.7495 2.2915 14.3594 4.11518 14.1013 6.17986L14.0475 6.61064C13.8934 7.84296 14.3415 9.07416 15.2515 9.91928L15.2881 9.95325C16.1904 10.7913 16.3656 12.1542 15.7043 13.1931C15.2359 13.9291 14.424 14.3748 13.5516 14.3748H6.7009C5.67292 14.3748 4.7353 13.7875 4.28665 12.8626L4.20053 12.6851C3.73546 11.7263 3.95304 10.5761 4.73617 9.85343C5.60597 9.05079 6.03496 7.87772 5.88816 6.7033L5.82203 6.17426Z" fill="#FAFAFA"/>
<path d="M8.1525 17.1248C7.9454 16.8487 7.55364 16.7927 7.2775 16.9998C7.00136 17.2069 6.9454 17.5987 7.1525 17.8748L7.4025 18.2082C8.7775 20.0415 11.5275 20.0415 12.9025 18.2082L13.1525 17.8748C13.3596 17.5987 13.3036 17.2069 13.0275 16.9998C12.7514 16.7927 12.3596 16.8487 12.1525 17.1248L11.9025 17.4582C11.0275 18.6248 9.2775 18.6248 8.4025 17.4582L8.1525 17.1248Z" fill="#FAFAFA"/>
</svg>
