<svg width="23" height="23" viewBox="0 0 23 23" fill="none" xmlns="http://www.w3.org/2000/svg">
<path fill-rule="evenodd" clip-rule="evenodd" d="M5.75 2.15625C4.2945 2.15625 3.11458 3.33617 3.11458 4.79167C3.11458 6.24717 4.2945 7.42708 5.75 7.42708C7.2055 7.42708 8.38542 6.24717 8.38542 4.79167C8.38542 3.33617 7.2055 2.15625 5.75 2.15625ZM4.55208 4.79167C4.55208 4.13008 5.08841 3.59375 5.75 3.59375C6.41159 3.59375 6.94792 4.13008 6.94792 4.79167C6.94792 5.45326 6.41159 5.98958 5.75 5.98958C5.08841 5.98958 4.55208 5.45326 4.55208 4.79167Z" fill="#FAFAFA"/>
<path d="M11.5 4.07292C11.103 4.07292 10.7813 4.39471 10.7813 4.79167C10.7813 5.18862 11.103 5.51042 11.5 5.51042L19.1667 5.51042C19.5636 5.51042 19.8854 5.18862 19.8854 4.79167C19.8854 4.39471 19.5636 4.07292 19.1667 4.07292L11.5 4.07292Z" fill="#FAFAFA"/>
<path fill-rule="evenodd" clip-rule="evenodd" d="M17.25 8.86458C15.7945 8.86458 14.6146 10.0445 14.6146 11.5C14.6146 12.9555 15.7945 14.1354 17.25 14.1354C18.7055 14.1354 19.8854 12.9555 19.8854 11.5C19.8854 10.0445 18.7055 8.86458 17.25 8.86458ZM16.0521 11.5C16.0521 10.8384 16.5884 10.3021 17.25 10.3021C17.9116 10.3021 18.4479 10.8384 18.4479 11.5C18.4479 12.1616 17.9116 12.6979 17.25 12.6979C16.5884 12.6979 16.0521 12.1616 16.0521 11.5Z" fill="#FAFAFA"/>
<path d="M3.83333 10.7812C3.43638 10.7812 3.11458 11.103 3.11458 11.5C3.11458 11.897 3.43638 12.2187 3.83333 12.2187L11.5 12.2188C11.897 12.2188 12.2188 11.897 12.2188 11.5C12.2188 11.103 11.897 10.7812 11.5 10.7812L3.83333 10.7812Z" fill="#FAFAFA"/>
<path fill-rule="evenodd" clip-rule="evenodd" d="M5.75 15.5729C4.2945 15.5729 3.11458 16.7528 3.11458 18.2083C3.11458 19.6638 4.2945 20.8438 5.75 20.8438C7.2055 20.8438 8.38542 19.6638 8.38542 18.2083C8.38542 16.7528 7.2055 15.5729 5.75 15.5729ZM4.55208 18.2083C4.55208 17.5467 5.08841 17.0104 5.75 17.0104C6.41159 17.0104 6.94792 17.5467 6.94792 18.2083C6.94792 18.8699 6.41159 19.4062 5.75 19.4062C5.08841 19.4062 4.55208 18.8699 4.55208 18.2083Z" fill="#FAFAFA"/>
<path d="M11.5 17.4896C11.103 17.4896 10.7813 17.8114 10.7813 18.2083C10.7813 18.6053 11.103 18.9271 11.5 18.9271H19.1667C19.5636 18.9271 19.8854 18.6053 19.8854 18.2083C19.8854 17.8114 19.5636 17.4896 19.1667 17.4896H11.5Z" fill="#FAFAFA"/>
</svg>
