<svg width="25" height="21" viewBox="0 0 25 21" fill="none" xmlns="http://www.w3.org/2000/svg">
<path fill-rule="evenodd" clip-rule="evenodd" d="M12.5 7.37492C10.3427 7.37492 8.5938 8.77403 8.5938 10.4999C8.5938 12.2258 10.3427 13.6249 12.5 13.6249C14.6574 13.6249 16.4063 12.2258 16.4063 10.4999C16.4063 8.77403 14.6574 7.37492 12.5 7.37492ZM10.1563 10.4999C10.1563 9.46438 11.2056 8.62492 12.5 8.62492C13.7945 8.62492 14.8438 9.46438 14.8438 10.4999C14.8438 11.5355 13.7945 12.3749 12.5 12.3749C11.2056 12.3749 10.1563 11.5355 10.1563 10.4999Z" fill="#041029"/>
<path fill-rule="evenodd" clip-rule="evenodd" d="M12.5 3.20825C10.2699 3.20825 8.25343 4.09075 6.61643 5.16301C4.97049 6.24114 3.62464 7.56546 2.72027 8.57326L2.64568 8.65624C2.10124 9.26145 1.65308 9.75963 1.65308 10.4999C1.65308 11.2402 2.10124 11.7384 2.64568 12.3436L2.72027 12.4266C3.62464 13.4344 4.97049 14.7587 6.61643 15.8368C8.25343 16.9091 10.2699 17.7916 12.5 17.7916C14.7302 17.7916 16.7467 16.9091 18.3837 15.8368C20.0296 14.7587 21.3755 13.4344 22.2798 12.4266L22.3544 12.3436C22.8989 11.7384 23.347 11.2402 23.347 10.4999C23.347 9.75963 22.8989 9.26145 22.3544 8.65625L22.2798 8.57326C21.3754 7.56546 20.0296 6.24114 18.3837 5.16301C16.7467 4.09075 14.7302 3.20825 12.5 3.20825ZM3.98955 9.30224C4.85337 8.33963 6.10784 7.1117 7.60629 6.13018C9.11369 5.1428 10.7857 4.45825 12.5 4.45825C14.2144 4.45825 15.8864 5.1428 17.3938 6.13018C18.8923 7.1117 20.1467 8.33963 21.0105 9.30224C21.6605 10.0265 21.7845 10.2011 21.7845 10.4999C21.7845 10.7987 21.6605 10.9733 21.0105 11.6976C20.1467 12.6602 18.8923 13.8881 17.3938 14.8697C15.8864 15.857 14.2144 16.5416 12.5 16.5416C10.7857 16.5416 9.11369 15.857 7.60629 14.8697C6.10784 13.8881 4.85337 12.6602 3.98955 11.6976C3.33959 10.9733 3.21558 10.7987 3.21558 10.4999C3.21558 10.2011 3.33959 10.0265 3.98955 9.30224Z" fill="#041029"/>
</svg>
