<svg width="17" height="18" viewBox="0 0 17 18" fill="none" xmlns="http://www.w3.org/2000/svg">
<path d="M6.37484 3.92432C6.08144 3.92432 5.84359 4.16217 5.84359 4.45557C5.84359 4.74897 6.08144 4.98682 6.37484 4.98682H10.6248C10.9182 4.98682 11.1561 4.74897 11.1561 4.45557C11.1561 4.16217 10.9182 3.92432 10.6248 3.92432H6.37484Z" fill="white"/>
<path d="M3.5415 8.17432C3.2481 8.17432 3.01025 8.41216 3.01025 8.70557C3.01025 8.99897 3.2481 9.23682 3.5415 9.23682H13.4582C13.7516 9.23682 13.9894 8.99897 13.9894 8.70557C13.9894 8.41216 13.7516 8.17432 13.4582 8.17432H3.5415Z" fill="white"/>
<path d="M6.37484 12.4243C6.08144 12.4243 5.84359 12.6622 5.84359 12.9556C5.84359 13.249 6.08144 13.4868 6.37484 13.4868H10.6248C10.9182 13.4868 11.1561 13.249 11.1561 12.9556C11.1561 12.6622 10.9182 12.4243 10.6248 12.4243H6.37484Z" fill="white"/>
</svg>
