<svg width="23" height="23" viewBox="0 0 23 23" fill="none" xmlns="http://www.w3.org/2000/svg">
<path d="M5.71983 1.75915C6.0298 1.51118 6.08006 1.05887 5.83208 0.748903C5.58411 0.438933 5.1318 0.388677 4.82183 0.636653L2.426 2.55332C2.11603 2.8013 2.06578 3.2536 2.31375 3.56357C2.56173 3.87354 3.01403 3.92379 3.324 3.67582L5.71983 1.75915Z" fill="#FAFAFA"/>
<path d="M18.1782 0.636653C17.8682 0.388677 17.4159 0.438933 17.1679 0.748903C16.9199 1.05887 16.9702 1.51118 17.2802 1.75915L19.676 3.67582C19.986 3.92379 20.4383 3.87354 20.6863 3.56357C20.9342 3.2536 20.884 2.8013 20.574 2.55332L18.1782 0.636653Z" fill="#FAFAFA"/>
<path d="M12.2188 7.66665C12.2188 7.2697 11.897 6.9479 11.5 6.9479C11.103 6.9479 10.7813 7.2697 10.7813 7.66665L10.7813 11.0208C10.7813 11.4178 10.4595 11.7396 10.0625 11.7396H8.625C8.22805 11.7396 7.90625 12.0614 7.90625 12.4583C7.90625 12.8553 8.22805 13.1771 8.625 13.1771H10.0625C11.2534 13.1771 12.2188 12.2117 12.2188 11.0208L12.2188 7.66665Z" fill="#FAFAFA"/>
<path fill-rule="evenodd" clip-rule="evenodd" d="M11.5 1.1979C5.81032 1.1979 1.19792 5.8103 1.19792 11.5C1.19792 17.1897 5.81032 21.8021 11.5 21.8021C17.1897 21.8021 21.8021 17.1897 21.8021 11.5C21.8021 5.8103 17.1897 1.1979 11.5 1.1979ZM2.63542 11.5C2.63542 6.60421 6.60423 2.6354 11.5 2.6354C16.3958 2.6354 20.3646 6.60421 20.3646 11.5C20.3646 16.3958 16.3958 20.3646 11.5 20.3646C6.60423 20.3646 2.63542 16.3958 2.63542 11.5Z" fill="#FAFAFA"/>
</svg>
