<svg width="40" height="40" viewBox="0 0 40 40" fill="none" xmlns="http://www.w3.org/2000/svg">
<g clip-path="url(#clip0_227_3133)">
<path d="M19.9998 40C31.0455 40 39.9998 31.0457 39.9998 20C39.9998 8.9543 31.0455 0 19.9998 0C8.95412 0 -0.000183105 8.9543 -0.000183105 20C-0.000183105 31.0457 8.95412 40 19.9998 40Z" fill="#F0F0F0"/>
<path d="M19.1305 19.9997H40C40 18.1945 39.7594 16.4457 39.311 14.7822H19.1305V19.9997Z" fill="#D80027"/>
<path d="M19.1305 9.56508H37.0646C35.8403 7.56727 34.2749 5.80141 32.4497 4.34766H19.1305V9.56508Z" fill="#D80027"/>
<path d="M19.9999 39.9997C24.7069 39.9997 29.0332 38.3728 32.4496 35.6519H7.55023C10.9666 38.3728 15.293 39.9997 19.9999 39.9997Z" fill="#D80027"/>
<path d="M2.93545 30.4347H37.0645C38.0474 28.8309 38.8097 27.0778 39.311 25.2173H0.688965C1.19029 27.0778 1.95256 28.8309 2.93545 30.4347Z" fill="#D80027"/>
<path d="M9.26419 3.12328H11.0868L9.39146 4.35492L10.039 6.34781L8.3438 5.11617L6.64857 6.34781L7.20794 4.62617C5.71529 5.86953 4.407 7.32625 3.32888 8.94938H3.91286L2.83372 9.73336C2.6656 10.0138 2.50435 10.2987 2.34982 10.5879L2.86513 12.1739L1.90372 11.4754C1.66474 11.9817 1.44615 12.4995 1.24966 13.028L1.81739 14.7755H3.91286L2.21755 16.0071L2.86513 18L1.1699 16.7684L0.154426 17.5062C0.0527856 18.3232 -0.000183105 19.1554 -0.000183105 20H19.9998C19.9998 8.95437 19.9998 7.65219 19.9998 0C16.0489 0 12.3658 1.14609 9.26419 3.12328ZM10.039 18L8.3438 16.7684L6.64857 18L7.29614 16.0071L5.60083 14.7755H7.6963L8.3438 12.7826L8.9913 14.7755H11.0868L9.39146 16.0071L10.039 18ZM9.39146 10.181L10.039 12.1739L8.3438 10.9423L6.64857 12.1739L7.29614 10.181L5.60083 8.94938H7.6963L8.3438 6.95648L8.9913 8.94938H11.0868L9.39146 10.181ZM17.2129 18L15.5177 16.7684L13.8225 18L14.4701 16.0071L12.7747 14.7755H14.8702L15.5177 12.7826L16.1652 14.7755H18.2607L16.5654 16.0071L17.2129 18ZM16.5654 10.181L17.2129 12.1739L15.5177 10.9423L13.8225 12.1739L14.4701 10.181L12.7747 8.94938H14.8702L15.5177 6.95648L16.1652 8.94938H18.2607L16.5654 10.181ZM16.5654 4.35492L17.2129 6.34781L15.5177 5.11617L13.8225 6.34781L14.4701 4.35492L12.7747 3.12328H14.8702L15.5177 1.13039L16.1652 3.12328H18.2607L16.5654 4.35492Z" fill="#0052B4"/>
</g>
<defs>
<clipPath id="clip0_227_3133">
<rect width="40" height="40" fill="white"/>
</clipPath>
</defs>
</svg>
