<svg xmlns="http://www.w3.org/2000/svg" width="51" height="53" fill="none"><path fill="#3092D9" d="M25.333.99c-13.806 0-25 11.6-25 25.91 0 12.14 8.067 22.299 18.942 25.11a3.906 3.906 0 0 1-.192-1.259v-4.428h-3.141c-1.71 0-3.232-.762-3.97-2.178-.818-1.575-.96-3.982-2.989-5.455-.602-.49-.143-1.049.55-.973 1.282.375 2.344 1.287 3.344 2.638.996 1.354 1.465 1.66 3.325 1.66.902 0 2.252-.053 3.523-.26.683-1.8 1.865-3.455 3.308-4.237-8.325-.887-12.298-5.18-12.298-11.007 0-2.51 1.032-4.936 2.784-6.98-.575-2.03-1.298-6.17.22-7.745 3.746 0 6.011 2.517 6.555 3.197a18.14 18.14 0 0 1 6.07-1.038c2.159 0 4.217.375 6.088 1.043.538-.676 2.804-3.202 6.558-3.202 1.525 1.578.794 5.734.213 7.76 1.742 2.04 2.767 4.46 2.767 6.965 0 5.823-3.967 10.113-12.28 11.005 2.288 1.237 3.957 4.713 3.957 7.332v5.903c0 .225-.048.387-.073.58 9.741-3.54 16.74-13.126 16.74-24.432 0-14.308-11.194-25.91-25-25.91Z"/></svg>