<svg width="106" height="112" viewBox="0 0 106 112" fill="none" xmlns="http://www.w3.org/2000/svg">
<path d="M27.0154 98.2526C16.9594 92.4473 9.12072 83.4619 4.73405 72.7126C0.347385 61.9619 -0.33928 50.0579 2.78339 38.8753C5.90605 27.6926 12.6594 17.8659 21.9807 10.9433C31.3021 4.0206 42.6607 0.395271 54.27 0.639267C65.878 0.881935 77.0754 4.97927 86.098 12.2859C95.122 19.5926 101.458 29.6939 104.11 40.9979C106.761 52.3019 105.577 64.1659 100.743 74.7233C95.91 85.2806 87.702 93.9299 77.4127 99.3086L63.8394 73.3446C68.3661 70.9779 71.9781 67.1726 74.1047 62.5273C76.2314 57.8819 76.7527 52.6619 75.5861 47.6886C74.4194 42.7139 71.6314 38.2699 67.6607 35.0553C63.69 31.8406 58.7634 30.0366 53.6554 29.9299C48.5487 29.8233 43.55 31.4179 39.4487 34.4646C35.3474 37.5099 32.3754 41.8339 31.0021 46.7539C29.6287 51.6753 29.9301 56.9126 31.8607 61.6419C33.7914 66.3726 37.2394 70.3259 41.6634 72.8806L27.0154 98.2526Z" fill="#2585CB"/>
<path d="M61.0527 102.91L52.6687 77.7593L44.2847 102.91L52.6687 111.294L61.0527 102.91Z" fill="white"/>
</svg>
