<svg width="332" height="45" viewBox="0 0 332 45" fill="none" xmlns="http://www.w3.org/2000/svg">
<path d="M11.1727 39.4418C7.17535 37.1338 4.05802 33.5618 2.31402 29.2871C0.570021 25.0138 0.296688 20.2805 1.53802 15.8338C2.77935 11.3885 5.46469 7.48048 9.17135 4.72848C12.8767 1.97648 17.394 0.535149 22.0087 0.631149C26.6247 0.728481 31.0767 2.35781 34.6647 5.26315C38.2514 8.16848 40.7714 12.1845 41.8247 16.6778C42.8794 21.1725 42.4087 25.8898 40.486 30.0871C38.5647 34.2845 35.302 37.7231 31.21 39.8618L25.814 29.5391C27.614 28.5978 29.05 27.0845 29.8954 25.2378C30.7407 23.3911 30.9474 21.3151 30.4847 19.3378C30.0207 17.3605 28.9114 15.5938 27.3327 14.3151C25.754 13.0365 23.7954 12.3205 21.7647 12.2778C19.734 12.2351 17.7474 12.8698 16.1167 14.0805C14.486 15.2911 13.3047 17.0098 12.758 18.9671C12.2114 20.9231 12.3314 23.0058 13.0994 24.8858C13.8674 26.7671 15.238 28.3391 16.9967 29.3538L11.1727 39.4418Z" fill="#2585CB"/>
<path d="M24.7057 41.2939L21.3724 31.2939L18.0391 41.2939L21.3724 44.6272L24.7057 41.2939Z" fill="white"/>
<path d="M321.334 31.9999V14.6666H314.667V11.9999H332V14.6666H325.334V31.9999H321.334ZM297.334 31.9999H293.334V11.9999H308V14.6666H297.334V31.9999ZM296 21.3333H306.667V23.9999H296V21.3333ZM266.514 27.9999L267.54 25.3333H278.628L279.655 27.9999H266.514ZM261.827 33.3333L271.427 11.9999H275.328L284.959 33.3333H280.596L272.579 14.6666H274.118L266.131 33.3333H261.827ZM241.334 25.7773L239.671 23.9999H245.692C247.335 23.9999 248.568 23.6466 249.391 22.9386C250.231 22.2306 250.652 21.2466 250.652 19.9853C250.652 18.7039 250.231 17.7199 249.391 17.0319C248.568 16.3439 247.335 15.9999 245.692 15.9999H239.671L241.334 14.1653V25.7773ZM251.316 33.3333L245.742 25.3333H250.12L255.726 33.3333H251.316ZM237.334 31.9999V11.9999H245.85C247.683 11.9999 249.25 12.2959 250.551 12.8866C251.872 13.4786 252.887 14.3266 253.598 15.4306C254.307 16.5333 254.662 17.8453 254.662 19.3626C254.662 20.8799 254.307 22.1919 253.598 23.2959C252.887 24.3799 251.872 25.2173 250.551 25.8093C249.25 26.3799 247.683 26.6666 245.85 26.6666H239.954L241.334 24.9133V31.9999H237.334ZM220.167 32.9213C218.602 32.9213 217.146 32.6666 215.796 32.1586C214.466 31.6306 213.303 30.8973 212.306 29.9586C211.327 28.9999 210.564 27.8759 210.018 26.5853C209.47 25.2946 209.196 23.8866 209.196 22.3613C209.196 20.8359 209.47 19.4279 210.018 18.1373C210.564 16.8466 211.338 15.7319 212.335 14.7933C213.332 13.8346 214.495 13.1013 215.826 12.5933C217.155 12.0653 218.612 11.8013 220.196 11.8013C221.878 11.8013 223.412 12.0946 224.802 12.6813C226.19 13.2479 227.363 14.0986 228.322 15.2333L225.858 17.5506C225.114 16.7493 224.283 16.1519 223.364 15.7613C222.444 15.3506 221.447 15.1453 220.372 15.1453C219.296 15.1453 218.308 15.3213 217.41 15.6733C216.53 16.0253 215.756 16.5239 215.092 17.1693C214.447 17.8146 213.938 18.5773 213.567 19.4573C213.215 20.3373 213.039 21.3053 213.039 22.3613C213.039 23.4173 213.215 24.3853 213.567 25.2653C213.938 26.1453 214.447 26.9079 215.092 27.5533C215.756 28.1986 216.53 28.6973 217.41 29.0493C218.308 29.4013 219.296 29.5773 220.372 29.5773C221.447 29.5773 222.444 29.3813 223.364 28.9906C224.283 28.5799 225.114 27.9639 225.858 27.1426L228.322 29.4893C227.363 30.6039 226.19 31.4546 224.802 32.0413C223.412 32.6279 221.868 32.9213 220.167 32.9213ZM192 31.9999V14.6666H185.334V11.9999H202.667V14.6666H196V31.9999H192ZM157.334 33.3333V11.9999H160.516L173.578 27.9999H172V11.9999H176V33.3333H173.303L159.69 17.3333H161.334V33.3333H157.334ZM136 29.3333H148V31.9999H132V11.9999H146.667V14.6666H136V29.3333ZM136 21.3333H146.667V23.9999H136V21.3333ZM117.334 11.9999H121.334V31.9999H117.334V11.9999ZM93.3336 31.9999V11.9999H97.3336V29.3333H108V31.9999H93.3336ZM75.9682 32.9213C74.4042 32.9213 72.9469 32.6666 71.5976 32.1586C70.2682 31.6306 69.1042 30.8973 68.1069 29.9586C67.1296 28.9999 66.3669 27.8759 65.8189 26.5853C65.2722 25.2946 64.9976 23.8866 64.9976 22.3613C64.9976 20.8359 65.2722 19.4279 65.8189 18.1373C66.3669 16.8466 67.1389 15.7319 68.1362 14.7933C69.1336 13.8346 70.2976 13.1013 71.6269 12.5933C72.9576 12.0653 74.4136 11.8013 75.9976 11.8013C77.6802 11.8013 79.2149 12.0946 80.6029 12.6813C81.9922 13.2479 83.1656 14.0986 84.1229 15.2333L81.6589 17.5506C80.9162 16.7493 80.0855 16.1519 79.1655 15.7613C78.2469 15.3506 77.2496 15.1453 76.1736 15.1453C75.0989 15.1453 74.1109 15.3213 73.2109 15.6733C72.3309 16.0253 71.5589 16.5239 70.8936 17.1693C70.2482 17.8146 69.7402 18.5773 69.3682 19.4573C69.0162 20.3373 68.8402 21.3053 68.8402 22.3613C68.8402 23.4173 69.0162 24.3853 69.3682 25.2653C69.7402 26.1453 70.2482 26.9079 70.8936 27.5533C71.5589 28.1986 72.3309 28.6973 73.2109 29.0493C74.1109 29.4013 75.0989 29.5773 76.1736 29.5773C77.2496 29.5773 78.2469 29.3813 79.1655 28.9906C80.0855 28.5799 80.9162 27.9639 81.6589 27.1426L84.1229 29.4893C83.1656 30.6039 81.9922 31.4546 80.6029 32.0413C79.2149 32.6279 77.6696 32.9213 75.9682 32.9213Z" fill="white"/>
</svg>
