<svg width="606" height="440" viewBox="0 0 606 440" fill="none" xmlns="http://www.w3.org/2000/svg">
<path d="M31.5426 353.622L83.5461 334.706L176.441 274.065L127.331 266.059L77.5344 297.017L31.5426 353.622Z" fill="white"/>
<path d="M106.546 194.477L136.145 175.779L106.244 167.496L76.6229 186.164L106.546 194.477Z" fill="#C6C6C6"/>
<path d="M108.022 302.93L137.644 284.262L136.145 175.779L106.523 194.485L108.022 302.93Z" fill="#818181"/>
<path d="M108.135 302.907L77.5043 294.706L76.0051 186.261L106.636 194.462L108.135 302.907Z" fill="#8B8B8B"/>
<path d="M66.5431 189.36L96.5188 170.655L66.3698 162.394L36.7407 181.062L66.5431 189.36Z" fill="#5BA9E1"/>
<path d="M96.2702 170.7L97.4982 259.066L98.1837 308.7L68.5546 327.368L66.5356 188.97L96.2702 170.7Z" fill="#2177B5"/>
<path d="M66.5431 189.36L68.4792 327.376L38.3529 319.092L36.7407 181.062L66.5431 189.36Z" fill="#3092D9"/>
<path d="M30.5406 287.496L60.1396 268.797L30.2393 260.506L0.617676 279.175L30.5406 287.496Z" fill="#0B2B6F"/>
<path d="M31.4296 353.644L61.0587 334.976L60.1397 268.797L30.5181 287.495L31.4296 353.644Z" fill="#061940"/>
<path d="M31.5426 353.622L0.91155 345.421L0 279.28L30.6311 287.481L31.5426 353.622Z" fill="#092257"/>
<path d="M565.658 117.614C569.56 118.649 572.513 122.273 572.265 125.71L560.784 281.621C560.535 285.057 557.168 287 553.25 285.965L265.879 209.687C261.976 208.651 259.023 205.027 259.272 201.591L270.745 45.68C271.001 42.236 274.361 40.2926 278.279 41.3281L565.658 117.614Z" fill="#D0D0D0"/>
<path d="M557.454 284.982L547.578 295.089L544.737 290.932L259.219 210.992C255.784 210.032 249.335 211.562 245.787 214.226L135.233 296.605L135.052 294.984L118.11 306.141L115.511 305.774L116.648 312.834C116.901 314.011 117.835 314.924 119.021 315.153L416.194 398.717C419.637 399.677 425.377 398.477 428.925 395.82L553.228 302.832C555.164 301.384 556.565 298.766 556.429 297.512L557.454 284.982Z" fill="#8B8B8B"/>
<path d="M259.212 210.992C255.776 210.032 249.328 211.562 245.779 214.226L135.233 296.605L135.052 294.984L118.11 306.141L115.511 305.774L116.648 312.834C116.901 314.011 117.835 314.924 119.021 315.153L416.194 398.717C417.867 399.11 419.603 399.156 421.294 398.852L411.727 326.918C413.663 325.492 259.212 210.992 259.212 210.992Z" fill="#C6C6C6"/>
<path d="M414.989 389.263L117.854 306.081C114.418 305.113 114.501 302.157 118.049 299.501L245.245 204.254C248.793 201.598 254.503 200.21 257.946 201.17L555.111 284.359C558.546 285.32 558.456 288.283 554.908 290.939L427.683 386.194C424.134 388.842 418.416 390.23 414.989 389.263Z" fill="#EDEDED"/>
<path d="M279.627 231.109C279.048 231.413 278.375 231.486 277.744 231.311L260.07 226.472C259.438 226.291 259.249 225.916 259.648 225.631L270.851 217.7C271.432 217.395 272.108 217.322 272.742 217.498L290.408 222.345C291.048 222.517 291.236 222.892 290.829 223.178L279.627 231.109Z" fill="#D0D0D0"/>
<path d="M300.819 252.073C300.238 252.378 299.561 252.45 298.928 252.275L281.262 247.428C280.622 247.255 280.441 246.88 280.848 246.595L292.05 238.657C292.628 238.358 293.298 238.288 293.926 238.462L311.599 243.301C312.24 243.481 312.42 243.856 312.029 244.134L300.819 252.073Z" fill="#D0D0D0"/>
<path d="M291.153 264.573C290.576 264.881 289.901 264.954 289.27 264.776L271.597 259.929C270.971 259.756 270.768 259.389 271.175 259.096L282.4 251.135C282.978 250.83 283.652 250.758 284.283 250.932L301.956 255.779C302.589 255.952 302.778 256.327 302.378 256.612L291.153 264.573Z" fill="#D0D0D0"/>
<path d="M263.807 272.234C263.231 272.539 262.559 272.612 261.931 272.437L244.258 267.589C243.632 267.417 243.444 267.042 243.843 266.757L255.046 258.826C255.624 258.521 256.298 258.448 256.929 258.623L274.602 263.463C275.235 263.635 275.416 264.018 275.017 264.303L263.807 272.234Z" fill="#D0D0D0"/>
<path d="M215.969 276.188C215.391 276.494 214.716 276.563 214.086 276.383L196.413 271.544C195.78 271.371 195.584 270.996 195.991 270.711L209.144 261.392C209.726 261.089 210.403 261.019 211.035 261.197L228.701 266.036C229.334 266.209 229.522 266.592 229.123 266.869L215.969 276.188Z" fill="#D0D0D0"/>
<path d="M246.435 284.532C245.72 284.841 244.916 284.879 244.175 284.637L221.032 278.29C220.203 278.064 219.842 277.644 220.279 277.359L233.432 268.048C234.148 267.74 234.951 267.703 235.692 267.943L258.842 274.29C259.679 274.515 260.018 274.943 259.596 275.221L246.435 284.532Z" fill="#D0D0D0"/>
<path d="M398.513 326.326C397.958 326.583 397.327 326.625 396.743 326.446L379.092 321.606C378.444 321.426 378.195 321.088 378.534 320.856L383.393 317.412C383.953 317.161 384.586 317.123 385.171 317.307L402.83 322.146C403.462 322.319 403.703 322.657 403.372 322.897L398.513 326.326Z" fill="#D0D0D0"/>
<path d="M422.13 333.093C421.576 333.343 420.949 333.383 420.367 333.206L402.709 328.366C402.069 328.186 401.813 327.848 402.152 327.616L407.018 324.172C407.576 323.913 408.21 323.873 408.796 324.059L426.447 328.899C427.087 329.071 427.328 329.409 426.989 329.649L422.13 333.093Z" fill="#D0D0D0"/>
<path d="M447.141 339.674C446.593 339.919 445.973 339.954 445.401 339.771L427.743 334.931C427.102 334.759 426.839 334.429 427.163 334.181L431.848 330.865C432.4 330.623 433.021 330.588 433.596 330.767L451.255 335.607C451.895 335.787 452.151 336.117 451.827 336.357L447.141 339.674Z" fill="#D0D0D0"/>
<path d="M431.359 326.708C430.808 326.953 430.186 326.988 429.611 326.805L411.975 321.966C411.342 321.793 411.071 321.463 411.395 321.215L416.081 317.899C416.633 317.658 417.253 317.623 417.829 317.801L435.495 322.641C436.128 322.821 436.384 323.151 436.067 323.391L431.359 326.708Z" fill="#D0D0D0"/>
<path d="M367.965 317.846C367.384 318.153 366.706 318.223 366.074 318.042L251.098 286.528C250.473 286.355 250.269 285.973 250.676 285.687L263.83 276.376C264.412 276.074 265.087 276.002 265.72 276.173L380.689 307.687C381.329 307.86 381.517 308.242 381.126 308.52L367.965 317.846Z" fill="#D0D0D0"/>
<path d="M243.18 281.561C243.121 281.579 243.058 281.579 243 281.561L229.5 277.854C229.424 277.854 229.379 277.809 229.409 277.786L230.223 277.209C230.282 277.19 230.345 277.19 230.404 277.209L243.911 280.908C243.986 280.908 244.024 280.96 244.001 280.983L243.18 281.561Z" fill="#D0D0D0"/>
<path d="M208.496 270.839C208.465 270.85 208.43 270.85 208.398 270.839L202.665 269.263C202.665 269.263 202.665 269.263 202.665 269.218L203.486 268.64C203.516 268.621 203.555 268.621 203.584 268.64L209.317 270.208C209.317 270.208 209.317 270.208 209.317 270.261L208.496 270.839Z" fill="#D0D0D0"/>
<path d="M288.027 278.897C287.448 279.2 286.773 279.27 286.144 279.092L268.478 274.253C267.845 274.08 267.649 273.697 268.048 273.42L279.251 265.481C279.835 265.177 280.513 265.105 281.149 265.279L298.815 270.126C299.455 270.298 299.636 270.673 299.237 270.959L288.027 278.897Z" fill="#D0D0D0"/>
<path d="M312.353 285.53C311.776 285.834 311.105 285.907 310.477 285.733L292.811 280.893C292.178 280.72 291.982 280.338 292.381 280.06L303.584 272.144C304.168 271.84 304.846 271.767 305.482 271.941L323.148 276.789C323.773 276.961 323.962 277.336 323.562 277.621L312.353 285.53Z" fill="#D0D0D0"/>
<path d="M336.686 292.2C336.107 292.505 335.433 292.577 334.802 292.403L317.136 287.563C316.504 287.391 316.315 287.008 316.715 286.73L327.917 278.792C328.496 278.488 329.169 278.415 329.8 278.589L347.474 283.399C348.106 283.579 348.287 283.954 347.888 284.239L336.686 292.2Z" fill="#D0D0D0"/>
<path d="M361.011 298.871C360.433 299.176 359.759 299.249 359.128 299.073L341.462 294.226C340.822 294.054 340.633 293.678 341.033 293.393L352.242 285.462C352.823 285.153 353.5 285.081 354.133 285.26L371.799 290.099C372.44 290.279 372.62 290.655 372.214 290.94L361.011 298.871Z" fill="#D0D0D0"/>
<path d="M385.344 305.541C384.76 305.847 384.08 305.917 383.446 305.736L365.788 300.897C365.155 300.724 364.966 300.349 365.366 300.064L376.568 292.133C377.148 291.826 377.825 291.751 378.459 291.923L396.155 296.77C396.795 296.942 396.984 297.325 396.584 297.61L385.344 305.541Z" fill="#D0D0D0"/>
<path d="M409.67 312.204C409.09 312.506 408.416 312.576 407.787 312.399L390.128 307.56C389.495 307.387 389.307 307.004 389.706 306.727L400.909 298.788C401.49 298.483 402.166 298.411 402.799 298.586L420.465 303.433C421.098 303.605 421.287 303.981 420.887 304.266L409.67 312.204Z" fill="#D0D0D0"/>
<path d="M464.468 327.226C463.889 327.528 463.215 327.598 462.585 327.421L414.446 314.23C413.813 314.05 413.625 313.675 414.024 313.397L425.227 305.459C425.808 305.154 426.484 305.082 427.117 305.256L475.256 318.454C475.889 318.627 476.077 319.002 475.671 319.287L464.468 327.226Z" fill="#D0D0D0"/>
<path d="M315.359 271.199C314.785 271.511 314.11 271.584 313.483 271.401L295.817 266.562C295.176 266.389 294.988 266.014 295.395 265.729L306.597 257.79C307.178 257.491 307.85 257.421 308.48 257.595L326.146 262.435C326.787 262.615 326.968 262.983 326.568 263.268L315.359 271.199Z" fill="#D0D0D0"/>
<path d="M339.692 277.869C339.116 278.176 338.444 278.249 337.816 278.072L320.135 273.225C319.509 273.06 319.314 272.684 319.72 272.399L330.93 264.461C331.506 264.163 332.172 264.091 332.799 264.258L350.48 269.143C351.105 269.315 351.301 269.691 350.901 269.976L339.692 277.869Z" fill="#D0D0D0"/>
<path d="M364.025 284.539C363.447 284.847 362.772 284.92 362.141 284.742L344.475 279.902C343.843 279.73 343.639 279.354 344.046 279.062L355.248 271.131C355.828 270.83 356.501 270.757 357.132 270.928L374.805 275.775C375.43 275.948 375.626 276.323 375.227 276.608L364.025 284.539Z" fill="#D0D0D0"/>
<path d="M388.343 291.21C387.767 291.515 387.095 291.588 386.467 291.413L368.801 286.566C368.168 286.393 367.972 286.025 368.379 285.733L379.581 277.802C380.16 277.496 380.834 277.424 381.465 277.599L399.168 282.446C399.801 282.619 399.989 282.994 399.59 283.272L388.343 291.21Z" fill="#D0D0D0"/>
<path d="M412.683 297.873C412.105 298.177 411.431 298.25 410.8 298.075L393.142 293.228C392.509 293.056 392.32 292.68 392.72 292.395L403.93 284.464C404.505 284.159 405.177 284.087 405.805 284.262L423.479 289.109C424.112 289.281 424.3 289.657 423.908 289.934L412.683 297.873Z" fill="#D0D0D0"/>
<path d="M437.001 304.536C436.426 304.844 435.754 304.916 435.126 304.738L417.467 299.906C416.819 299.734 416.631 299.358 417.03 299.073L428.24 291.135C428.821 290.835 429.493 290.766 430.123 290.94L447.789 295.779C448.422 295.952 448.61 296.327 448.211 296.612L437.001 304.536Z" fill="#D0D0D0"/>
<path d="M461.335 311.206C460.757 311.514 460.082 311.587 459.451 311.409L441.778 306.562C441.145 306.389 440.957 306.021 441.363 305.736L452.573 297.798C453.147 297.496 453.815 297.424 454.441 297.595L472.115 302.442C472.748 302.615 472.936 302.99 472.537 303.275L461.335 311.206Z" fill="#D0D0D0"/>
<path d="M325.031 258.698C324.452 259.01 323.773 259.083 323.141 258.9L305.475 254.061C304.849 253.888 304.661 253.513 305.068 253.22L316.3 245.29C316.877 244.989 317.547 244.917 318.176 245.087L335.842 249.934C336.482 250.107 336.671 250.482 336.271 250.767L325.031 258.698Z" fill="#D0D0D0"/>
<path d="M349.357 265.391C348.778 265.695 348.104 265.768 347.474 265.594L329.808 260.754C329.167 260.582 328.979 260.206 329.386 259.914L340.596 251.983C341.172 251.678 341.843 251.605 342.471 251.78L360.145 256.627C360.77 256.8 360.959 257.175 360.559 257.453L349.357 265.391Z" fill="#D0D0D0"/>
<path d="M373.69 272.039C373.106 272.343 372.427 272.416 371.792 272.242L354.126 267.395C353.5 267.222 353.312 266.854 353.719 266.562L364.921 258.638C365.497 258.333 366.169 258.261 366.797 258.436L384.463 263.275C385.103 263.455 385.292 263.831 384.892 264.108L373.69 272.039Z" fill="#D0D0D0"/>
<path d="M398.008 278.702C397.432 279.013 396.756 279.088 396.125 278.912L378.459 274.065C377.819 273.892 377.63 273.517 378.037 273.232L389.247 265.294C389.824 264.991 390.495 264.921 391.123 265.099L408.796 269.938C409.436 270.111 409.61 270.486 409.218 270.771L398.008 278.702Z" fill="#D0D0D0"/>
<path d="M422.341 285.365C421.767 285.675 421.094 285.75 420.465 285.575L402.792 280.728C402.152 280.555 401.971 280.18 402.378 279.895L413.587 271.956C414.164 271.653 414.836 271.583 415.463 271.761L433.137 276.601C433.762 276.774 433.95 277.149 433.551 277.434L422.341 285.365Z" fill="#D0D0D0"/>
<path d="M446.674 292.035C446.095 292.347 445.416 292.42 444.783 292.238L427.117 287.398C426.485 287.225 426.296 286.85 426.703 286.558L437.905 278.627C438.482 278.322 439.153 278.25 439.781 278.424L457.447 283.271C458.095 283.444 458.283 283.819 457.884 284.104L446.674 292.035Z" fill="#D0D0D0"/>
<path d="M471 298.705C470.421 299.009 469.747 299.082 469.117 298.908L451.443 294.068C450.81 293.888 450.622 293.52 451.029 293.228L462.231 285.297C462.81 284.992 463.484 284.92 464.114 285.094L481.78 289.941C482.413 290.114 482.601 290.489 482.202 290.767L471 298.705Z" fill="#D0D0D0"/>
<path d="M276.493 245.403C275.912 245.707 275.236 245.78 274.602 245.605L244.642 237.397C244.009 237.217 243.813 236.841 244.227 236.556L255.43 228.625C256.01 228.326 256.683 228.256 257.313 228.43L287.274 236.639C287.907 236.819 288.095 237.194 287.696 237.472L276.493 245.403Z" fill="#D0D0D0"/>
<path d="M510.754 294.451C510.173 294.757 509.496 294.829 508.863 294.654L478.91 286.438C478.285 286.265 478.089 285.89 478.488 285.605L489.691 277.674C490.269 277.37 490.943 277.297 491.574 277.471L521.535 285.65C522.175 285.823 522.363 286.198 521.956 286.49L510.754 294.451Z" fill="#D0D0D0"/>
<path d="M266.82 257.888C266.243 258.196 265.567 258.269 264.937 258.09L229.221 248.298C228.58 248.126 228.392 247.751 228.791 247.466L240.001 239.527C240.582 239.228 241.255 239.158 241.885 239.332L277.601 249.086C278.241 249.259 278.422 249.634 278.023 249.919L266.82 257.888Z" fill="#D0D0D0"/>
<path d="M239.459 265.564C238.88 265.868 238.206 265.941 237.575 265.766L213.762 259.238C213.122 259.066 212.933 258.691 213.333 258.406L224.543 250.475C225.123 250.166 225.801 250.093 226.433 250.272L250.247 256.8C250.88 256.972 251.068 257.348 250.661 257.633L239.459 265.564Z" fill="#D0D0D0"/>
<path d="M303.953 237.779C303.372 238.084 302.695 238.157 302.062 237.982L284.403 233.127C283.771 232.954 283.575 232.579 283.982 232.294L295.206 224.371C295.788 224.065 296.464 223.993 297.097 224.168L314.748 229.008C315.396 229.188 315.585 229.555 315.178 229.848L303.953 237.779Z" fill="#D0D0D0"/>
<path d="M328.173 244.382C327.591 244.687 326.915 244.759 326.282 244.585L308.616 239.745C307.983 239.573 307.787 239.19 308.194 238.905L319.396 230.974C319.975 230.669 320.649 230.597 321.28 230.771L338.953 235.618C339.586 235.791 339.782 236.166 339.375 236.451L328.173 244.382Z" fill="#D0D0D0"/>
<path d="M352.461 251.075C351.882 251.38 351.208 251.452 350.577 251.278L332.911 246.43C332.279 246.258 332.09 245.883 332.497 245.598L343.692 237.667C344.271 237.363 344.944 237.29 345.575 237.464L363.249 242.304C363.889 242.484 364.07 242.851 363.663 243.144L352.461 251.075Z" fill="#D0D0D0"/>
<path d="M376.824 257.745C376.243 258.051 375.566 258.123 374.933 257.948L357.282 253.108C356.642 252.928 356.454 252.553 356.853 252.268L368.055 244.337C368.636 244.032 369.313 243.959 369.946 244.134L387.604 248.974C388.237 249.154 388.433 249.522 388.026 249.814L376.824 257.745Z" fill="#D0D0D0"/>
<path d="M401.142 264.408C400.567 264.717 399.895 264.792 399.266 264.618L381.6 259.771C380.96 259.599 380.772 259.223 381.178 258.938L392.388 251.007C392.967 250.695 393.647 250.622 394.279 250.805L411.93 255.637C412.57 255.817 412.751 256.185 412.344 256.47L401.142 264.408Z" fill="#D0D0D0"/>
<path d="M425.483 271.071C424.905 271.378 424.231 271.453 423.599 271.281L405.948 266.434C405.316 266.261 405.135 265.886 405.534 265.601L416.736 257.67C417.313 257.36 417.988 257.284 418.62 257.46L436.293 262.307C436.918 262.48 437.114 262.855 436.708 263.14L425.483 271.071Z" fill="#D0D0D0"/>
<path d="M449.816 277.741C449.234 278.046 448.558 278.118 447.925 277.944L430.259 273.104C429.619 272.924 429.43 272.549 429.83 272.264L441.032 264.333C441.613 264.028 442.289 263.956 442.923 264.13L460.596 268.978C461.229 269.15 461.417 269.525 461.011 269.81L449.816 277.741Z" fill="#D0D0D0"/>
<path d="M474.134 284.412C473.558 284.716 472.886 284.789 472.258 284.614L454.577 279.767C453.944 279.595 453.763 279.22 454.163 278.934L465.365 271.004C465.941 270.699 466.613 270.627 467.241 270.801L484.922 275.648C485.555 275.821 485.743 276.188 485.336 276.481L474.134 284.412Z" fill="#D0D0D0"/>
<path d="M488.44 291.765C488.103 291.677 487.754 291.652 487.408 291.69C487.108 291.711 486.818 291.806 486.564 291.968L475.362 299.906C475.174 300.041 475.091 300.199 475.173 300.364C475.312 300.565 475.527 300.7 475.769 300.739L480.379 302.007L465.689 312.407C465.493 312.542 465.425 312.707 465.508 312.872C465.655 313.066 465.87 313.197 466.111 313.239L478.014 316.503C478.35 316.591 478.7 316.616 479.046 316.578C479.35 316.561 479.645 316.468 479.905 316.308L506.535 297.445C506.724 297.31 506.799 297.152 506.709 296.987C506.568 296.786 506.35 296.65 506.106 296.612L488.44 291.765Z" fill="#D0D0D0"/>
<path d="M236.182 261.504C236.123 261.523 236.06 261.523 236.001 261.504L222.493 257.805C222.418 257.805 222.38 257.753 222.403 257.73L223.217 257.152C223.275 257.134 223.339 257.134 223.397 257.152L236.905 260.889C236.98 260.889 237.025 260.941 236.995 260.964L236.182 261.504Z" fill="#D0D0D0"/>
<path d="M309.859 342.547L245.071 325.192C244.318 324.989 244.318 324.404 245.071 323.887L271.393 305.413C272.185 304.884 273.151 304.68 274.09 304.843L338.878 322.198C339.631 322.401 339.631 322.986 338.878 323.504L312.511 341.977C311.732 342.495 310.784 342.699 309.859 342.547Z" fill="#D0D0D0"/>
<path d="M581.908 84.0894C581.908 84.0894 581.908 84.0444 581.908 84.0294C581.908 84.0144 581.908 83.8493 581.908 83.7593C581.908 83.6692 581.908 83.6167 581.908 83.5492V83.4891C581.908 83.4066 581.908 83.3241 581.908 83.2415L581.862 82.9864V82.9189C581.862 82.8589 581.862 82.7988 581.825 82.7388C581.787 82.6788 581.825 82.5737 581.765 82.4987C581.704 82.4237 581.765 82.4162 581.765 82.3787V82.3336V82.2511C581.765 82.1686 581.712 82.0935 581.682 82.011C581.652 81.9285 581.629 81.8609 581.599 81.7859L581.493 81.5458C581.493 81.4708 581.425 81.3882 581.388 81.3132V81.2532V81.2081C581.388 81.1631 581.388 81.1181 581.328 81.0806C581.292 81.0057 581.252 80.933 581.207 80.863L581.117 80.6979L580.989 80.4953C580.95 80.4275 580.907 80.3624 580.86 80.3002L580.808 80.2177V80.1802C580.793 80.1535 580.775 80.1284 580.755 80.1052L580.612 79.9101C580.559 79.8425 580.514 79.775 580.461 79.715C580.412 79.6428 580.357 79.575 580.295 79.5124C580.243 79.4449 580.182 79.3848 580.13 79.3248L580.017 79.2048L579.964 79.1447C579.874 79.0472 579.776 78.9572 579.67 78.8596L579.58 78.7696L579.188 78.4244L579.128 78.3794L579.075 78.3344L578.932 78.2218L578.691 78.0418L578.6 77.9742H578.548L578.457 77.9067L578.216 77.7491L578.028 77.6366L577.764 77.4865C577.674 77.434 577.583 77.3815 577.486 77.3365L577.214 77.2014L576.928 77.0738H576.89L576.672 76.9838L576.386 76.8788H576.303L576.129 76.8187L575.836 76.7362L568.882 74.8904L561.266 80.6829C561.266 80.6829 568.566 82.3186 568.656 82.3486L568.95 82.4387L569.244 82.5512L569.53 82.6638L569.651 82.7163L570.103 82.9339C570.261 83.0089 570.404 83.0915 570.547 83.174H570.607L571.014 83.4291H571.075L571.459 83.6992L571.527 83.7518C571.655 83.8418 571.775 83.9393 571.888 84.0369L572.069 84.1944L572.287 84.3895L572.528 84.6221C572.574 84.6747 572.626 84.7197 572.679 84.7722L572.807 84.9148C572.883 84.9973 572.958 85.0723 573.026 85.1624L573.086 85.2299C573.184 85.3425 573.274 85.4625 573.365 85.5826L573.643 85.9652V86.0102C573.726 86.1378 573.809 86.2654 573.884 86.4004V86.4454L574.095 86.8356V86.8956L574.276 87.2933V87.3608C574.337 87.4884 574.382 87.6235 574.434 87.766C574.431 87.7834 574.431 87.8012 574.434 87.8185C574.48 87.9611 574.525 88.0962 574.563 88.2387C574.559 88.2561 574.559 88.2739 574.563 88.2912C574.563 88.4338 574.63 88.5764 574.653 88.7114C574.676 88.8465 574.653 88.854 574.653 88.929C574.653 89.0041 574.653 89.0941 574.653 89.1766C574.66 89.2665 574.66 89.3569 574.653 89.4467C574.653 89.5368 574.653 89.6268 574.653 89.7169V89.8144C574.653 89.8894 574.653 89.9645 574.653 90.0395V90.4447L573.063 112.039C572.626 111.919 567.873 118.454 568.016 118.544L561.025 279.782C560.972 280.533 558.26 285.68 558.953 285.17L566.057 278.027C567.508 276.634 568.411 274.772 568.604 272.774L582.021 86.3179C582.073 85.5676 582.156 84.4946 582.156 84.4946C582.156 84.4946 582.156 84.337 582.156 84.262C582.16 84.1995 582.16 84.1369 582.156 84.0744C582.156 84.0744 581.908 84.0969 581.908 84.0894Z" fill="#C6C6C6"/>
<path d="M573.809 76.0833L288.999 0.48021L288.577 0.367661L287.824 0.172575L287.53 0.105046L287.236 0.052523L286.92 0H286.618H286.317H285.33H284.999C284.869 0.013918 284.741 0.0364786 284.614 0.0675295H284.569L284.396 0.112549L284.193 0.165072H284.14L283.861 0.255112L283.718 0.307635C283.541 0.376069 283.367 0.453709 283.198 0.540236H283.16L283.108 0.577753C282.892 0.68925 282.686 0.817188 282.49 0.96042L274.949 6.52785C275.143 6.38874 275.347 6.26337 275.559 6.15269L275.808 6.02513C275.906 5.98011 276.011 5.92759 276.117 5.89008C276.239 5.83726 276.365 5.79215 276.493 5.75502L276.636 5.70249C276.817 5.64997 276.998 5.60495 277.186 5.56743H277.292C277.486 5.52896 277.682 5.5014 277.879 5.4849H277.925C278.138 5.47351 278.352 5.47351 278.565 5.4849H278.633C278.849 5.4864 279.066 5.49892 279.281 5.52242H279.349C279.582 5.52242 279.816 5.58244 280.049 5.62746L280.343 5.69499L280.569 5.74751L282.143 6.1677L567.398 81.8908C567.746 81.9747 568.113 81.9005 568.4 81.6882L573.99 77.5464C574.334 77.4363 574.552 77.0979 574.508 76.7403C574.463 76.3827 574.17 76.1069 573.809 76.0833Z" fill="#E4E4E4"/>
<path d="M567.918 81.7785L280.524 5.49261C276.621 4.45716 273.261 6.40051 272.99 9.84452L261.539 165.755C261.528 165.958 261.528 166.161 261.539 166.363L260.281 183.493C260.025 186.929 262.986 190.554 266.881 191.589L554.237 267.875C558.14 268.91 561.507 266.959 561.771 263.523L573.191 107.612C573.203 107.407 573.203 107.202 573.191 106.997L574.45 89.8745C574.743 86.438 571.783 82.8139 567.918 81.7785Z" fill="#505050"/>
<path d="M559.752 92.0654L287.462 22.0898C283.771 21.1444 280.569 22.7126 280.32 25.6089L278.701 44.0444C278.638 44.2705 278.596 44.5015 278.573 44.7347L267.069 175.892C266.813 178.788 269.6 181.895 273.299 182.848L545.581 252.838C549.28 253.791 552.482 252.215 552.73 249.327L554.343 230.914C554.405 230.69 554.448 230.462 554.471 230.231L565.982 99.036C566.238 96.1472 563.451 93.0334 559.752 92.0654Z" fill="#F6F6FF"/>
<path d="M468.416 360.165L456.799 368.974" stroke="#3A4157" stroke-width="0.960818" stroke-linecap="round" stroke-linejoin="round"/>
<path d="M453.907 371.39L442.29 380.199" stroke="#3A4157" stroke-width="0.960818" stroke-linecap="round" stroke-linejoin="round"/>
<path d="M266.798 204.247L555.126 284.547" stroke="#505050" stroke-width="0.960818" stroke-linecap="round" stroke-linejoin="round"/>
<g style="mix-blend-mode:multiply">
<path d="M194.175 280.361C204.83 280.361 213.468 276.994 213.468 272.842C213.468 268.69 204.83 265.324 194.175 265.324C183.52 265.324 174.882 268.69 174.882 272.842C174.882 276.994 183.52 280.361 194.175 280.361Z" fill="#D8D8D8"/>
</g>
<path d="M214.387 165.966L224.693 187.718L220.535 192.257L206.236 168.854L214.387 165.966Z" fill="#E0AE81"/>
<path d="M213.657 181.017L219.781 177.355C219.781 177.355 220.03 181.212 217.401 182.022C214.772 182.832 213.657 181.017 213.657 181.017Z" fill="#D3A47D"/>
<path d="M187.312 276.421L187.531 265.916C187.282 264.926 185.949 264.723 184.886 263.793C184.438 263.381 183.763 263.331 183.259 263.673L182.25 264.423C180.743 265.421 180.683 265.721 181.007 267.034L182.958 274.778C183.336 276.153 184.291 277.299 185.579 277.922L185.896 278.042C186.996 278.462 187.644 277.734 187.312 276.421Z" fill="#505050"/>
<path d="M184.125 264.026C184.125 264.026 184.706 270.734 186.386 271.146C186.386 271.146 187.448 271.401 187.485 269.706C187.523 268.01 187.96 264.716 187.96 264.716L184.125 264.026Z" fill="#E0AE81"/>
<path d="M213.657 181.017C213.657 181.017 218.734 181.144 219.781 177.355L218.214 174.219L211.585 177.685L213.657 181.017Z" fill="white"/>
<path d="M190.024 141.692C190.024 141.692 182.28 143.192 180.381 146.194C178.483 149.195 181.843 156.421 181.843 156.421V152.624C181.843 152.624 177.375 145.308 189.715 143.703C198.025 142.585 190.024 141.692 190.024 141.692Z" fill="#505050"/>
<path d="M189.874 141.917C189.874 141.917 177.112 150.17 181.843 158.124C186.574 166.077 199.403 169.529 199.403 169.529L204.617 142.75L189.874 141.917Z" fill="#505050"/>
<path d="M210.282 272.684L202.402 267.17C200.929 266.768 199.385 266.699 197.882 266.967C197.293 267.051 196.862 267.561 196.88 268.152L196.963 269.368C197.008 271.124 197.226 271.364 198.552 271.897L206.447 275.07C207.81 275.604 209.333 275.555 210.658 274.935L210.937 274.763C211.894 274.155 211.585 273.217 210.282 272.684Z" fill="#505050"/>
<path d="M197.527 267.319C197.618 269.758 202.59 270.636 202.688 268.16C208.715 245.207 209.468 224.198 210.651 199.925L195.426 187.169C196.654 208.238 198.582 226.081 198.206 244.269C198.153 246.625 196.978 249.124 196.842 251.39C196.571 256.087 197.934 262.735 197.527 267.319Z" fill="#E0AE81"/>
<path d="M199.825 251.578C199.953 249.327 201.136 246.813 201.181 244.457C201.309 238.454 201.181 232.452 200.91 226.382C200.39 214.819 197.384 213.941 197.897 226.216C198.168 232.287 198.296 238.267 198.168 244.292C198.123 246.648 196.94 249.146 196.812 251.412C196.533 256.117 197.897 262.765 197.49 267.349C197.595 269.21 199.531 256.29 199.825 251.578Z" fill="#D3A47D"/>
<path d="M197.271 248.884C197.271 248.884 199.772 241.793 203.019 241.868C204.816 241.826 206.484 242.792 207.336 244.367L208.496 236.864L198.16 237.404L198.123 244.502C198.122 244.939 198.072 245.375 197.972 245.8L197.271 248.884Z" fill="#D3A47D"/>
<path d="M183.779 263.447C183.237 265.586 186.288 267.657 187.651 265.698C191.764 257.272 194.77 250.782 197.565 244.412C199.682 239.587 200.142 233.824 201.031 228.039C203.147 214.226 188.826 210.782 189.534 224.775C189.864 230.532 189.69 236.306 189.015 242.033C188.668 244.802 187.086 244.667 186.167 249.319C185.248 253.971 185.052 256.694 183.779 263.447Z" fill="#E0AE81"/>
<path d="M187.056 251.698C188.201 245.867 191.358 243.444 191.795 239.947C192.684 232.774 194.009 226.201 193.648 219.013C193.588 217.973 193.606 216.93 193.701 215.892C191.297 216.492 189.324 219.298 189.602 224.723C189.929 230.48 189.752 236.254 189.075 241.981C188.736 244.749 187.146 244.614 186.227 249.266C185.308 253.918 185.112 256.627 183.839 263.38C183.417 265.046 184.758 264.693 185.052 264.633C186.476 256.912 185.971 257.37 187.056 251.698Z" fill="#D3A47D"/>
<path d="M210.251 158L219.819 174.995C219.819 174.995 217.476 182.656 208.94 179.212C197.105 174.432 210.251 158 210.251 158Z" fill="#3092D9"/>
<path d="M189.851 189.931C183.221 190.066 189.806 216.192 187.184 234.95C187.184 234.95 201 247.608 212.707 236.526L212.271 193.36L189.851 189.931Z" fill="#8B8B8B"/>
<path d="M197.565 240.503C189.745 229.248 192.171 196.639 196.428 191.904L189.851 189.931C183.221 190.066 189.806 216.192 187.184 234.95C190.192 237.54 193.737 239.436 197.565 240.503Z" fill="#505050"/>
<path d="M211.962 192.129C212.353 187.507 210.123 196.721 210.206 191.379C210.244 189.323 211.238 183.44 211.713 179.546C212.18 175.914 216 173.753 215.209 169.319C215.111 166.903 210.817 162.424 210.628 160.66C210.334 157.869 210.139 155.288 204.24 152.534L201.648 153.097C200.424 153.364 199.232 153.761 198.093 154.282C186.039 159.827 183.455 160.097 184.291 167.113C184.427 170.715 186.551 167.908 187.229 170.294C188.48 174.879 193.331 179.546 191.621 187.552C191.275 189.173 190.002 190.283 191.448 191.356C197.761 196.038 209.762 196.931 211.962 192.129Z" fill="#5BA9E1"/>
<path d="M215.352 169.124C215.246 166.7 210.96 162.229 210.771 160.458L210.447 160.593C210.651 162.529 213.611 167.601 213.724 170.257C214.478 174.429 211.924 176.522 210.862 179.546L212.805 177.295C213.657 175.224 216.105 173.551 215.352 169.124Z" fill="#5BA9E1"/>
<path d="M190.86 168.449L188.344 177.145L189.851 189.901L193.987 191.349V180.341C192.232 176.89 191.493 172.711 190.86 168.449Z" fill="#3092D9"/>
<path d="M225.447 195.228L223.186 196.519C222.079 197.149 220.655 197.119 220.015 196.451L219.57 195.978C218.938 195.318 219.322 194.253 220.437 193.622L222.697 192.339C223.804 191.709 225.236 191.739 225.868 192.407L226.313 192.872C226.946 193.54 226.554 194.605 225.447 195.228Z" fill="#E0AE81"/>
<path d="M201.144 195.101L201.076 194.62L201.882 194.853L202.002 194.545L219.94 185.391C220.233 185.279 220.558 185.279 220.851 185.391L229.726 189.143V189.038L231.338 189.518L231.413 190.028C231.394 190.088 231.35 190.137 231.292 190.163L212.625 199.685C212.328 199.797 212.002 199.797 211.705 199.685L201.43 195.333C201.272 195.266 201.181 195.176 201.174 195.093L201.144 195.101Z" fill="#8B8B8B"/>
<path d="M212.527 199.205L231.172 189.683C231.39 189.57 231.33 189.383 231.044 189.263L220.761 184.903C220.468 184.788 220.142 184.788 219.849 184.903L201.204 194.41C200.993 194.515 201.046 194.71 201.332 194.83L211.615 199.182C211.905 199.305 212.231 199.313 212.527 199.205Z" fill="#D0D0D0"/>
<path d="M210.259 193.225L214.779 190.921C214.832 190.921 214.779 190.846 214.779 190.816L212.286 189.766C212.215 189.74 212.138 189.74 212.067 189.766L207.547 192.077C207.494 192.077 207.509 192.144 207.547 192.174L210.033 193.232C210.107 193.258 210.187 193.256 210.259 193.225Z" fill="#EDEDED"/>
<path d="M202.168 195.183C195.8 194.973 189.586 193.183 184.088 189.975C182.646 189.153 181.734 187.645 181.677 185.991C181.602 182.285 181.677 175.712 182.905 174.639L188.683 181.234L188.412 184.918C194.718 187.679 198.04 190.958 201.889 192.129L202.168 195.183Z" fill="#E0AE81"/>
<path d="M184.691 189.15C183.387 188.092 182.905 185.916 182.875 184.303C182.75 181.236 182.884 178.164 183.274 175.119L182.852 174.639C181.594 175.704 181.549 182.285 181.632 185.991C181.684 187.645 182.594 189.153 184.035 189.975C189.534 193.179 195.748 194.969 202.115 195.183C202.115 195.183 190.303 193.682 184.691 189.15Z" fill="#D3A47D"/>
<path d="M191.644 157.231C191.644 157.231 196.051 167.736 202.462 165.012C208.873 162.288 204.225 152.752 204.225 152.752C199.862 153.723 195.636 155.228 191.644 157.231Z" fill="#E0AE81"/>
<path d="M199.087 159.257L199.509 159.34C200.159 159.504 200.848 159.389 201.408 159.022C201.968 158.655 202.348 158.071 202.454 157.412L203.494 149.841C203.629 148.41 202.651 147.111 201.234 146.839L200.805 146.757C200.155 146.595 199.467 146.711 198.907 147.078C198.348 147.444 197.967 148.027 197.859 148.685L195.719 155.768C195.524 157.104 197.648 158.972 199.087 159.257Z" fill="#E0AE81"/>
<path d="M213.092 189.21C213.234 188.729 213.565 188.326 214.011 188.092L233.733 178.255C233.866 178.182 234.02 178.155 234.17 178.18C234.207 178.188 234.241 178.207 234.268 178.233L234.924 178.721H234.328L232.453 188.107C232.308 188.587 231.978 188.99 231.534 189.225L212.881 198.529L212.27 199.084L212.203 199.212C211.755 199.193 211.318 199.075 210.922 198.867L213.092 189.21Z" fill="#EDEDED"/>
<path d="M213.943 185.391C214.087 184.911 214.418 184.509 214.862 184.273L234.592 174.436C234.723 174.356 234.878 174.327 235.029 174.354C235.067 174.365 235.103 174.383 235.135 174.406L235.782 174.894H235.195L233.289 184.303C233.145 184.783 232.814 185.186 232.37 185.421L213.717 194.718L213.114 195.273L213.039 195.408C212.592 195.382 212.155 195.262 211.758 195.055L213.943 185.391Z" fill="#EDEDED"/>
<path d="M235.217 174.947L215.495 184.784C215.049 185.017 214.718 185.42 214.576 185.902L212.655 195.416L211.901 199.227C211.818 199.633 212.097 199.79 212.527 199.58L232.227 189.758C232.672 189.525 233.004 189.121 233.146 188.64L235.067 179.104L235.82 175.292C235.926 174.894 235.647 174.737 235.217 174.947Z" fill="#474747"/>
<path d="M223.684 187.739C223.684 188.43 224.317 188.655 225.145 188.242C225.94 187.852 226.5 187.108 226.652 186.239C226.652 185.541 226.019 185.316 225.19 185.736C224.396 186.126 223.836 186.87 223.684 187.739Z" fill="white"/>
<path d="M198.868 269.038C198.868 269.038 204.503 271.326 205.528 270.658C206.387 270.088 202.213 267.379 202.213 267.379L198.868 269.038Z" fill="#E0AE81"/>
<path d="M192.872 156.646C192.872 156.646 196.752 167.496 203.147 164.615C208.112 162.364 204.511 153.405 204.511 153.405L205.852 153.66C205.852 153.66 210.139 164.164 202.891 167.166C196.511 169.762 191.162 157.479 191.162 157.479L192.872 156.646Z" fill="white"/>
<path d="M202.891 153.645C200.512 153.444 198.342 152.212 196.955 150.276C196.955 150.276 199.373 155.258 202.598 155.806L202.891 153.645Z" fill="#D3A47D"/>
<path d="M192.872 156.646C193.754 156.115 194.698 155.691 195.682 155.385L197.279 149.946C197.279 149.946 196.526 151.041 198.198 152.707L197.904 153.81C197.516 155.295 196.551 156.566 195.222 157.344L193.505 158.184L192.872 156.646Z" fill="#D3A47D"/>
<path d="M192.955 178.465C192.955 178.465 197.528 182.525 200.737 181.842C200.737 181.842 195.049 183.845 192.955 183.132C190.86 182.42 192.955 178.465 192.955 178.465Z" fill="#3092D9"/>
<path d="M182.958 185.196L188.435 184.918C187.096 186.452 185 187.097 183.026 186.584L182.958 185.196Z" fill="#D3A47D"/>
<path d="M181.564 184.528C181.564 184.528 184.261 186.614 188.412 184.918L188.653 181.917L181.564 181.414V184.528Z" fill="white"/>
<path d="M191.245 168.156L189.331 180.604C189.157 182.289 187.795 183.607 186.099 183.733C183.673 183.831 180.555 183.388 180.547 180.477C180.507 174.335 181.574 168.235 183.696 162.469C184.306 160.87 185.956 160.413 187.87 159.167C188.186 158.965 188.058 160.825 188.412 161.088C190.564 162.765 191.646 165.464 191.245 168.156Z" fill="#5BA9E1"/>
<path d="M183.711 162.446C183.711 162.446 179.734 173.581 180.562 180.867C180.636 182.125 181.574 183.165 182.822 183.373C182.301 182.12 182.044 180.774 182.069 179.418C182.122 177.213 183.033 180.169 183.365 179.418C183.696 178.668 183.869 175.667 183.696 173.596C183.523 171.525 184.766 165.62 184.171 164.224C183.576 162.829 183.711 162.446 183.711 162.446Z" fill="#3092D9"/>
<path d="M200.285 193.119C200.084 194.301 200.878 195.423 202.063 195.633L206.183 196.33C207.373 196.53 208.5 195.735 208.707 194.552C208.907 193.37 208.109 192.249 206.922 192.046L202.808 191.341C201.62 191.146 200.496 191.938 200.285 193.119Z" fill="#E0AE81"/>
<path d="M196.089 138.143C197.309 136.192 199.17 135.847 200.895 136.972C202.582 136.29 204.662 137.295 206.168 139.846C208.263 143.395 208.059 148.325 206.748 151.424C206.04 153.097 205.242 154.267 201.174 153.57C198.447 153.044 196.91 152.249 195.358 149.63C193.226 146.089 194.311 140.987 196.089 138.143Z" fill="#E0AE81"/>
<path d="M198.605 147.177C198.605 147.177 202.726 148.798 205.264 143.268C205.264 143.268 206.161 141.369 205.777 140.566C205.392 139.764 198.605 147.177 198.605 147.177Z" fill="#D3A47D"/>
<path d="M205.641 141.212C200.789 148.715 197.972 146.539 197.851 147.702L197.03 150.809C196.541 153.127 194.183 152.182 191.908 152.932C191.908 152.932 184.457 144.348 193.716 137.453C199.976 132.786 208.639 137.378 207.705 143.523L205.641 141.212Z" fill="#505050"/>
<path d="M195.463 148.685C195.968 149.545 197.04 149.894 197.957 149.495C198.371 149.292 198.678 148.923 198.802 148.48C198.926 148.038 198.854 147.563 198.605 147.177C198.102 146.313 197.028 145.964 196.111 146.366C195.696 146.567 195.386 146.937 195.263 147.38C195.139 147.824 195.212 148.299 195.463 148.685Z" fill="#E0AE81"/>
<path d="M197.332 148.032C197.428 147.953 197.483 147.834 197.483 147.71C197.483 147.585 197.428 147.467 197.332 147.387C197.06 147.117 196.639 146.854 196.33 147.387C196.123 147.959 196.247 148.599 196.654 149.053C196.675 149.085 196.717 149.098 196.753 149.084C196.79 149.069 196.811 149.031 196.804 148.993C196.703 148.724 196.788 148.42 197.015 148.242C197.125 148.179 197.23 148.109 197.332 148.032Z" fill="#D3A47D"/>
<path d="M204.986 151.956C205.739 151.679 206.281 150.538 206.281 149.413L203.697 150.418C203.697 151.544 204.277 152.234 204.986 151.956Z" fill="white"/>
<path d="M280.893 284.584L270.971 282.063C269.63 281.726 268.99 280.075 269.54 278.394L274.753 262.412C275.303 260.739 276.84 259.636 278.173 259.974L288.102 262.495C289.436 262.832 290.076 264.483 289.534 266.164L284.313 282.146C283.778 283.819 282.234 284.9 280.893 284.584Z" fill="#D0D0D0"/>
<path d="M279.484 284.149L269.593 281.651C268.259 281.313 267.619 279.662 268.161 277.982L273.382 262C273.924 260.319 275.469 259.223 276.802 259.561L286.724 262.075C288.065 262.412 288.705 264.063 288.155 265.744L282.942 281.726C282.354 283.399 280.818 284.502 279.484 284.149Z" fill="#505050"/>
<path d="M279.326 281.943L271.145 279.865C270.045 279.587 269.51 278.229 269.962 276.863L274.482 263.358C274.852 262.255 276.021 261.63 277.149 261.932L284.742 263.958C285.318 264.117 285.804 264.503 286.088 265.027C286.373 265.551 286.431 266.167 286.249 266.734L282.098 279.97C281.699 281.313 280.426 282.221 279.326 281.943Z" fill="#E3E2FF"/>
<path d="M234.185 329.117L250.985 332.591L251.558 315.018L234.758 311.536L234.185 329.117Z" fill="#505050"/>
<path d="M269.013 302.465L262.104 294.602L269.525 288.014L275.732 299.284L269.013 302.465Z" fill="#E0AE81"/>
<path d="M262.142 387.695C254.496 383.53 241.402 383.26 232.905 387.087C231.601 387.661 230.372 388.389 229.243 389.255C223.849 387.515 216.534 387.755 211.495 390.006C205.528 392.692 205.046 397.246 210.425 400.173C215.585 402.986 224.279 403.264 230.245 400.923C230.602 401.158 230.979 401.383 231.375 401.598C239.022 405.763 252.115 406.04 260.613 402.206C269.111 398.372 269.796 391.844 262.142 387.695Z" fill="white"/>
<path d="M247.09 392.294L253.004 393.479C257.381 393.029 259.596 392.339 260.959 393.87L261.343 394.312C261.833 395.363 260.952 397.006 259.332 397.576L247.339 401.906C245.003 402.371 242.6 401.5 242.653 399.437C242.653 399.437 242.856 393.675 243.919 393.479C246.051 393.089 245.229 392.669 247.09 392.294Z" fill="#505050"/>
<path d="M250.089 395.198C249.983 397.614 244.062 397.351 244.19 394.943L244.544 387.094L250.443 387.35L250.089 395.198Z" fill="#E0AE81"/>
<path d="M251.655 388.235C249.508 390.951 244.393 390.741 243.369 388.82C243.082 377.693 239.707 365.747 244.499 350.613L241.018 304.13L261.667 308.932L255.467 357.704L251.655 388.235Z" fill="#505050"/>
<path d="M212.037 383.808C210.658 385.526 205.822 382.149 207.2 380.431L211.675 374.849L216.512 378.225L212.037 383.808Z" fill="#E0AE81"/>
<path d="M215.352 380.049C212.399 381.677 208.654 376.717 208.315 374.744C212.12 365.147 214.862 351.191 224.136 345.946L228.844 319.963C228.648 315.948 229.5 312.782 231.345 306.974L245.998 316.211L231.406 355.19C231.144 355.895 230.803 356.567 230.388 357.194L215.352 380.049Z" fill="#505050"/>
<path d="M252.921 254.196C253.147 258.953 250.33 261.264 246.623 259.358C242.917 257.453 241.418 251.66 241.192 246.903C240.966 242.146 242.096 240.233 245.802 242.138C249.508 244.044 252.695 249.439 252.921 254.196Z" fill="#E0AE81"/>
<path d="M259.046 252.38C258.76 257.13 254.307 259.816 250.834 257.528C247.361 255.239 244.762 249.529 245.056 244.772C245.35 240.015 248.393 238.019 251.874 240.315C255.354 242.611 259.302 247.623 259.046 252.38Z" fill="#E0AE81"/>
<path d="M247.105 266.659L246.623 266.516C244.983 266.031 244.045 264.318 244.521 262.682L247.226 253.498C247.716 251.868 249.433 250.934 251.075 251.405L251.558 251.547C253.197 252.033 254.136 253.745 253.659 255.381L252.364 264.588C251.881 266.216 248.74 267.132 247.105 266.659Z" fill="#E0AE81"/>
<path d="M242.578 256.049C242.578 256.049 243.331 259.283 249.245 258.818C253.689 258.465 250.751 250.797 254.872 249.064C260.432 246.708 258.443 241.298 256.078 239.475C253.712 237.651 250.601 238.559 246.774 239.7C242.721 240.9 237.199 243.819 242.578 256.049Z" fill="#505050"/>
<path d="M256.138 251.135C256.053 252.289 255.047 253.157 253.888 253.077C252.729 252.996 251.853 251.998 251.929 250.843C252.005 249.689 253.005 248.813 254.164 248.884C254.727 248.919 255.252 249.176 255.623 249.599C255.994 250.022 256.179 250.575 256.138 251.135Z" fill="#E0AE81"/>
<path d="M228.776 310.883C229.658 299.216 231.526 296.042 231.285 285.927C232.129 266.644 232.686 261.504 239.06 260.416L243.323 260.079C244.642 260.371 245.847 261.024 247.151 261.384C252.597 262.885 256.115 263.313 259.957 265.564C263.415 267.574 263.453 272.647 263.302 276.886C263.852 289.356 263.498 308.085 263.476 314.23C261.215 322.949 231.925 316.938 228.776 310.883Z" fill="#0B2B6F"/>
<path d="M254.594 258.225L253.84 257.212C254.671 257.636 255.647 257.672 256.507 257.31C255.961 257.777 255.301 258.092 254.594 258.225Z" fill="#D3A47D"/>
<path d="M264.779 278.379L261.442 281.74C257.162 296.822 258.428 312.301 252.002 318.589C255.769 318.702 259.294 318.311 261.931 316.511C262.866 315.834 263.449 314.778 263.521 313.629L264.779 278.379Z" fill="#092257"/>
<path d="M242.608 259.793C242.608 259.793 241.485 262.555 244.762 263.703C248.039 264.851 253.561 263.192 253.561 263.192C253.561 263.192 250.043 259.276 242.608 259.793Z" fill="white"/>
<path d="M254.759 252.44C254.379 252.467 254.046 252.188 254.006 251.81L252.906 247.308C252.861 246.925 253.855 247.181 254.239 247.143C254.624 247.143 255.746 246.79 255.746 247.143L255.377 251.645C255.406 252.029 255.139 252.372 254.759 252.44Z" fill="#505050"/>
<path d="M282.03 285.755C283.345 287.182 285.571 287.283 287.01 285.98L290.468 282.836C291.901 281.526 292.002 279.31 290.694 277.876C289.382 276.45 287.158 276.349 285.722 277.651L282.256 280.795C280.827 282.107 280.727 284.32 282.03 285.755Z" fill="#E0AE81"/>
<path d="M265.427 276.219C266.739 277.645 268.962 277.746 270.399 276.444L273.864 273.3C275.293 271.988 275.394 269.775 274.09 268.34C272.775 266.913 270.55 266.812 269.111 268.115L265.653 271.259C264.22 272.568 264.119 274.785 265.427 276.219Z" fill="#E0AE81"/>
<path d="M286.995 285.995C286.995 285.995 280.215 302.134 276.644 305.669C273.073 309.203 268.003 301.016 268.003 301.016L281.202 282.648L286.995 285.995Z" fill="#E0AE81"/>
<path d="M253.019 278.004L263.664 298.188C265.555 303.328 278.791 298.878 275.913 292.981C275.732 292.606 261.328 266.674 261.328 266.674C261.328 266.674 253.772 270.689 253.019 278.004Z" fill="#0B2B6F"/>
<path d="M264.553 294.309C267.152 296.98 274.083 294.894 274.964 291.015" stroke="white" stroke-width="0.660988" stroke-linecap="round" stroke-linejoin="round"/>
<path d="M212.248 383.815L212.158 389.263C213.273 393.074 216.105 393.615 214.952 395.078L213.988 395.828C213.024 396.744 209.913 396.353 209.295 395.506L204.052 387.072C203.304 385.064 203.855 382.804 205.445 381.362C205.445 381.362 207.125 379.801 207.946 379.809C209.943 379.816 211.585 382.217 212.248 383.815Z" fill="#505050"/>
<path d="M485.371 77.8145L485.634 76.8283L530.637 88.7378L530.374 89.7241L485.371 77.8145Z" fill="#818181"/>
<path d="M391.733 103.125L345.726 90.9474L350.043 40.938L396.049 53.1158L391.733 103.125ZM346.818 90.182L390.821 101.82L394.95 53.8736L350.954 42.2361L346.818 90.182Z" fill="#818181"/>
<path d="M436.738 115.033L390.731 102.855L395.04 52.8457L441.047 65.0535L436.738 115.033ZM391.823 102.09L435.819 113.735L439.955 65.8039L395.959 54.1588L391.823 102.09Z" fill="#818181"/>
<path d="M526.74 138.848L480.733 126.678L485.05 76.6685L531.057 88.8463L526.74 138.848ZM481.826 125.912L525.828 137.558L529.964 89.6116L485.961 77.9665L481.826 125.912Z" fill="#818181"/>
<path d="M341.53 139.488L345.763 90.5154L346.784 90.6029L342.551 139.576L341.53 139.488Z" fill="#818181"/>
<path d="M432.512 164.007L386.505 151.829L390.821 101.82L436.836 113.997L432.512 164.007ZM387.597 151.064L431.6 162.709L435.736 114.763L391.733 103.125L387.597 151.064Z" fill="#818181"/>
<path d="M477.516 175.914L431.51 163.744L435.819 113.735L481.826 125.912L477.516 175.914ZM432.602 162.979L476.597 174.601L480.733 126.655L436.738 115.01L432.602 162.979Z" fill="#818181"/>
<path d="M522.521 187.83L476.514 175.652L480.824 125.643L526.83 137.835L522.521 187.83ZM477.607 174.887L521.602 186.532L525.731 138.586L481.735 126.941L477.607 174.887Z" fill="#818181"/>
<path d="M337.303 188.468L341.535 139.495L342.556 139.582L338.323 188.555L337.303 188.468Z" fill="#818181"/>
<path d="M383.288 201.073L337.281 188.895L341.59 138.893L387.597 151.063L383.288 201.073ZM338.373 188.107L382.369 199.752L386.505 151.806L342.509 140.169L338.373 188.107Z" fill="#818181"/>
<path d="M428.293 212.981L382.286 200.81L386.595 150.801L432.602 162.979L428.293 212.981ZM383.348 200.045L427.344 211.69L431.479 163.744L387.514 152.092L383.348 200.045Z" fill="#818181"/>
<path d="M473.29 224.873L427.283 212.718L431.6 162.709L477.607 174.887L473.29 224.873ZM428.376 211.93L472.379 223.575L476.514 175.629L432.511 163.984L428.376 211.93Z" fill="#818181"/>
<path d="M518.295 236.804L472.288 224.626L476.597 174.602L522.604 186.772L518.295 236.804ZM473.381 223.861L517.376 235.506L521.512 187.56L477.516 175.915L473.381 223.861Z" fill="#818181"/>
<path d="M440.369 65.8984L440.632 64.9122L485.635 76.8218L485.372 77.8081L440.369 65.8984Z" fill="#818181"/>
<path d="M312.534 172.006C312.534 172.006 324.866 154.38 344.626 159.25C359.693 163.002 351.482 164.847 369.931 165.208C380.809 165.425 399.703 140.687 426.221 145.234C474.224 153.487 495.265 102.57 514.905 121.471L505.458 239.13L311.095 189.683L312.534 172.006Z" fill="#5BA9E1"/>
<path d="M311.027 191.041C310.873 191.112 310.692 191.091 310.558 190.986C310.425 190.882 310.361 190.712 310.394 190.546L319.766 73.0146C319.821 72.598 320.115 72.2519 320.519 72.1292C320.674 72.0668 320.85 72.0928 320.98 72.1973C321.11 72.3017 321.173 72.4681 321.144 72.6319L311.727 190.156C311.679 190.559 311.409 190.9 311.027 191.041Z" fill="#0B2B6F"/>
<path d="M457 226.8L455.5 226.43L465.079 108.842C465.136 108.427 465.43 108.081 465.832 107.957C465.988 107.891 466.167 107.915 466.299 108.02C466.431 108.125 466.495 108.294 466.465 108.46L457 226.8Z" fill="#0B2B6F"/>
<path d="M408.723 214.513L407.223 214.143L416.801 96.5553C416.858 96.1395 417.152 95.7943 417.554 95.67C417.71 95.6037 417.889 95.6279 418.022 95.733C418.154 95.838 418.218 96.0069 418.187 96.1727L408.723 214.513Z" fill="#0B2B6F"/>
<path d="M407.624 229.13L406.139 228.716L415.621 97.0715C415.677 96.606 415.968 96.2195 416.366 96.0803C416.52 96.0061 416.698 96.0332 416.829 96.1508C416.96 96.2684 417.022 96.4575 416.993 96.6431L407.624 229.13Z" fill="#0B2B6F"/>
<path d="M359.649 216.215L358.164 215.807L367.645 84.1624C367.702 83.6969 367.992 83.3104 368.391 83.1712C368.545 83.097 368.722 83.1241 368.853 83.2417C368.984 83.3593 369.047 83.5484 369.017 83.734L359.649 216.215Z" fill="#0B2B6F"/>
<path d="M505.451 239.257C505.295 239.323 505.116 239.299 504.983 239.194C504.851 239.089 504.787 238.92 504.818 238.754L514.235 121.23C514.292 120.815 514.585 120.469 514.988 120.345C515.143 120.279 515.323 120.303 515.455 120.408C515.587 120.513 515.651 120.682 515.621 120.848L506.189 238.379C506.131 238.788 505.845 239.129 505.451 239.257Z" fill="#0B2B6F"/>
<path d="M514.37 111.461L508.019 109.435C507.192 109.009 506.736 108.099 506.889 107.184C506.972 106.186 507.643 105.556 508.313 105.781L514.664 107.807C515.487 108.237 515.943 109.144 515.794 110.058C515.719 111.056 515.078 111.686 514.37 111.461Z" fill="#0B2B6F"/>
<path d="M465.071 101.069L458.72 99.043C457.897 98.6127 457.442 97.7063 457.59 96.792C457.673 95.794 458.344 95.1638 459.014 95.3889L465.365 97.4147C466.174 97.8402 466.626 98.7266 466.495 99.6282C466.42 100.641 465.779 101.271 465.071 101.069Z" fill="#0B2B6F"/>
<path d="M416.88 90.5648L410.529 88.5389C409.72 88.1134 409.267 87.227 409.399 86.3254C409.474 85.3275 410.115 84.6972 410.823 84.9223L417.173 86.9482C417.997 87.3784 418.452 88.2849 418.303 89.1992C418.228 90.1746 417.588 90.8049 416.88 90.5648Z" fill="#0B2B6F"/>
<path d="M368.017 79.7L361.667 77.6742C360.855 77.2509 360.399 76.364 360.529 75.4607C360.612 74.4627 361.283 73.8325 361.953 74.0576L368.304 76.0835C369.13 76.5114 369.588 77.4184 369.441 78.3344C369.358 79.3099 368.718 79.9251 368.017 79.7Z" fill="#0B2B6F"/>
<path d="M319.931 68.2644L313.581 66.2385C312.756 65.8089 312.298 64.9032 312.443 63.9875C312.526 62.9896 313.196 62.3593 313.867 62.5844L320.218 64.6103C321.042 65.04 321.5 65.9456 321.355 66.8613C321.272 67.8517 320.632 68.4895 319.931 68.2644Z" fill="#0B2B6F"/>
<path fill-rule="evenodd" clip-rule="evenodd" d="M355.308 189.608L301.821 175.224C299.485 174.594 297.745 171.848 297.956 169.117L300.389 137.715C300.608 134.984 302.65 133.258 305.023 133.889L358.51 148.272C360.846 148.903 362.578 151.649 362.367 154.38L359.934 185.781C359.731 188.513 357.644 190.238 355.308 189.608Z" stroke="#3A4157" stroke-width="0.960818" stroke-linecap="round" stroke-linejoin="round"/>
<path d="M308.782 172.17L301.037 170.092L301.859 159.475L309.603 161.553L308.782 172.17Z" fill="#0B2B6F"/>
<path d="M319.946 175.172L312.202 173.093L313.513 156.158L321.257 158.237L319.946 175.172Z" fill="#0B2B6F"/>
<path d="M331.111 178.18L323.367 176.095L325.084 153.945L332.829 156.023L331.111 178.18Z" fill="#0B2B6F"/>
<path d="M342.283 181.182L334.539 179.096L336.422 154.792L344.166 156.871L342.283 181.182Z" fill="#0B2B6F"/>
<path d="M353.448 184.183L345.703 182.105L348.031 152.069L355.776 154.155L353.448 184.183Z" fill="#0B2B6F"/>
<path d="M392.102 153.344C401.225 147.792 412.307 142.975 425.897 145.031C469.478 151.619 485.856 116.743 508.065 117.141" stroke="#3A4157" stroke-width="0.960818" stroke-linecap="round" stroke-linejoin="round"/>
<path d="M501.495 115.813C503.715 116.093 505.911 116.537 508.065 117.141L503.175 121.028" stroke="#3A4157" stroke-width="0.960818" stroke-linecap="round" stroke-linejoin="round"/>
<path d="M320.413 131.225L304.262 126.678L306.228 100.506L322.38 105.053L320.413 131.225Z" fill="#0B2B6F"/>
<path d="M340.211 136.808L324.06 132.253L325.348 115.138L341.5 119.693L340.211 136.808Z" fill="white"/>
<path d="M360.612 142.555L344.46 138L347.037 103.688L363.196 108.242L360.612 142.555Z" fill="#5BA9E1"/>
<path d="M285.142 118.56L246.344 108.573C244.182 108.025 242.578 105.451 242.728 102.84L247.452 27.8674C247.618 25.2562 249.501 23.5905 251.663 24.1157L290.468 34.0726C292.63 34.6278 294.235 37.194 294.084 39.8051L289.353 114.778C289.18 117.442 287.304 119.115 285.142 118.56Z" fill="#0B2B6F"/>
<path d="M263.325 46.7227L254.985 44.5842C253.29 44.149 252.025 42.1382 252.153 40.0823C252.281 38.0339 253.757 36.7283 255.445 37.1635L263.792 39.3169C265.487 39.7521 266.753 41.763 266.625 43.8189C266.496 45.8523 265.02 47.1579 263.325 46.7227Z" fill="#FF9900"/>
<path d="M274.007 62.54L261.426 59.3136C259.949 58.7778 259.02 57.3164 259.166 55.757C259.264 54.1363 260.432 53.1083 261.773 53.446L274.354 56.6799C275.83 57.2128 276.759 58.6715 276.614 60.229C276.516 61.8497 275.348 62.8851 274.007 62.54Z" fill="white"/>
<path d="M283.703 78.6794L260.553 72.7443C259.212 72.3992 258.21 70.8085 258.293 69.1878C258.398 67.5745 259.566 66.5391 260.907 66.8842L284.027 72.8193C285.368 73.157 286.37 74.7477 286.287 76.3684C286.212 77.9891 285.044 79.0246 283.703 78.6794Z" fill="#5BA9E1"/>
<path d="M272.312 89.4094L259.731 86.1754C258.257 85.6404 257.329 84.1832 257.471 82.6264C257.569 81.0057 258.744 79.9702 260.078 80.3154L272.659 83.5418C274 83.8869 275.002 85.4776 274.919 87.0983C274.821 88.7191 273.653 89.747 272.312 89.4094Z" fill="white"/>
<path d="M260.658 99.321L252.047 97.1076C250.706 96.7699 249.704 95.1792 249.787 93.5585C249.893 91.9378 251.06 90.9024 252.401 91.2475L261.012 93.4985C262.485 94.0357 263.412 95.4914 263.272 97.0475C263.167 98.6307 261.999 99.6662 260.658 99.321Z" fill="#FF9900"/>
<g style="mix-blend-mode:multiply">
<path d="M453.304 323.572C483.498 309.488 483.34 286.588 452.957 272.414L438.696 279.07C408.977 270.996 370.353 272.85 345.033 284.66C314.839 298.743 314.997 321.643 345.372 335.817C375.747 349.991 424.858 350.073 455.052 335.975L400.057 310.313L412.48 304.521L453.304 323.572Z" fill="#D8D8D8"/>
</g>
<path d="M437.152 330.294C408.412 343.703 361.667 343.635 332.753 330.144C303.84 316.653 303.682 294.879 332.422 281.448C361.162 268.017 353.259 265.736 382.18 279.197L416.834 288.103L436.836 291.045L437.152 330.294Z" fill="#061940"/>
<path d="M311.155 264.303L311.027 304.303C311.027 304.303 308.119 318.98 332.753 330.145V299.659L318.176 285.65L313.121 276.916L311.155 264.303Z" fill="#092257"/>
<path d="M436.986 281.268C436.986 281.268 459.685 274.778 458.442 248.704C458.344 246.566 458.442 239.527 458.442 239.527C450.72 230.178 437.001 263.2 437.001 263.2L436.986 281.268Z" fill="#2177B5"/>
<path d="M332.753 299.658C303.832 286.153 303.682 264.393 332.422 250.962L384.787 275.385L332.753 291.24V299.658Z" fill="#092257"/>
<path d="M413.821 249.754C384.907 236.248 361.162 237.561 332.422 250.962L384.787 275.385L413.821 291.24V249.754Z" fill="#0B2B6F"/>
<path d="M437.152 291.397C408.412 304.798 361.667 304.731 332.753 291.24C303.84 277.749 303.682 255.974 332.422 242.543C361.162 229.113 407.9 229.21 436.821 242.701L384.787 266.974L437.152 291.397Z" fill="#092257"/>
<path d="M332.753 291.24C303.832 277.734 303.682 255.974 332.422 242.543L384.787 266.974L332.753 291.24Z" fill="#0B2B6F"/>
<g style="mix-blend-mode:plus-lighter" opacity="0.6">
<path d="M436.836 242.701C407.915 229.195 361.177 229.143 332.437 242.544L384.802 266.974L436.836 242.701Z" fill="#0B2B6F"/>
</g>
<path d="M436.655 215.712C465.576 229.218 465.727 250.977 436.986 264.408L384.621 239.985L436.655 215.712Z" fill="#5BA9E1"/>
<g style="mix-blend-mode:plus-lighter" opacity="0.2">
<path d="M384.697 267.012L384.787 266.974L332.422 242.543C319.449 248.599 312.36 256.364 311.155 264.303C334.998 265.211 367.724 266.396 384.697 267.012Z" fill="#0B2B6F"/>
</g>
<path d="M384.697 267.012L384.787 266.974L437.152 291.398C424.172 297.445 407.523 300.754 390.497 301.317C388.561 290.197 386.007 274.928 384.697 267.012Z" fill="#C6C6C6"/>
<path d="M384.621 239.985V255.757L436.986 281.268V264.408L384.621 239.985Z" fill="#2177B5"/>
<path d="M390.497 301.317V340.222C390.497 340.222 416.729 340.657 437.152 330.295V291.398C437.152 291.398 416.91 301.189 390.497 301.317Z" fill="#8B8B8B"/>
<path d="M492.44 177.97C492.44 177.97 490.692 196.841 500.93 195.648C511.168 194.455 511.522 181.924 511.522 181.924L492.44 177.97Z" fill="#505050"/>
<path d="M485.125 186.261L494.278 192.151L501.187 193.532L498.685 199.91L492.32 197.884L483.249 190.471L485.125 186.261Z" fill="#0B2B6F"/>
<path d="M478.443 183.118C479.494 181.879 481.352 181.718 482.601 182.757L484.236 184.116C485.457 185.177 485.617 187.01 484.598 188.265C483.545 189.499 481.69 189.66 480.439 188.625L478.805 187.259C477.565 186.211 477.404 184.364 478.443 183.118Z" fill="#E0AE81"/>
<g style="mix-blend-mode:multiply" opacity="0.4">
<path d="M471.256 133.393C475.904 155.153 461.463 167.743 445.801 168.231C430.138 168.719 416.194 153.922 414.62 135.172C413.045 116.421 424.413 100.822 440.075 100.334C455.737 99.8463 467.331 114.988 471.256 133.393Z" fill="#5BA9E1"/>
</g>
<path d="M476.386 184.941L470.699 192.557L457.304 166.558L464.205 161.298L476.386 184.941Z" fill="#505050"/>
<path d="M497.608 212.868L481.035 182.105C480.567 180.799 479.046 180.049 476.688 180.236C472.582 180.551 467.504 183.553 465.342 186.937C464.227 188.685 464.122 190.193 464.845 191.206L468.725 198.424L485.17 229.053L501.495 220.131L497.608 212.868Z" fill="#8B8B8B"/>
<path d="M498.226 219.508C501.902 218.975 502.746 220.956 500.154 223.928C497.563 226.899 492.448 229.743 488.771 230.275C485.095 230.808 484.251 228.835 486.835 225.864C489.419 222.892 494.55 220.048 498.226 219.508Z" fill="#505050"/>
<path d="M452.814 101.977C437.175 93.6334 420.744 101.684 416.119 119.985C411.493 138.285 420.435 159.865 436.082 168.209C451.729 176.552 468.16 168.501 472.778 150.201C477.396 131.9 468.476 110.321 452.814 101.977ZM470.894 148.332C466.97 163.872 450.614 170.302 437.325 163.211C424.036 156.121 416.45 137.783 420.375 122.251C424.3 106.719 439.412 97.7377 452.701 104.828C465.99 111.919 474.834 132.801 470.91 148.34L470.894 148.332Z" fill="#505050"/>
<path d="M480.567 139.216C480.567 138.811 480.62 138.413 480.635 138.015V137.835C480.635 137.64 480.635 137.452 480.635 137.257C480.635 137.062 480.635 136.792 480.635 136.56C480.635 136.327 480.635 136.304 480.635 136.177C480.635 136.049 480.635 135.757 480.635 135.554C480.635 135.352 480.635 135.231 480.635 135.074C480.635 134.916 480.635 134.691 480.635 134.496C480.635 134.301 480.635 134.083 480.635 133.873C480.635 133.663 480.635 133.671 480.635 133.566L480.567 132.748L480.522 132.215C480.522 132.163 480.522 132.118 480.522 132.065C480.477 131.577 480.424 131.09 480.356 130.602V130.467C480.304 130.039 480.243 129.604 480.168 129.176C480.168 129.109 480.168 129.041 480.168 128.974L480.078 128.486C480.04 128.253 480.002 128.021 479.957 127.796L479.776 127.331L479.663 126.79C479.663 126.663 479.611 126.535 479.581 126.4C479.52 126.138 479.46 125.882 479.392 125.65C479.392 125.515 479.332 125.372 479.294 125.237V125.087C479.181 124.637 479.061 124.179 478.933 123.729V123.676L478.82 123.286C478.714 122.941 478.616 122.596 478.503 122.251C478.503 122.198 478.503 122.146 478.451 122.086L478.157 121.245L477.931 120.57C477.931 120.525 477.931 120.488 477.878 120.45C477.614 119.7 477.328 119.002 477.027 118.297L476.959 118.109C476.884 117.929 476.793 117.756 476.718 117.576C476.642 117.396 476.462 116.999 476.326 116.706C476.19 116.413 476.085 116.203 475.957 115.956C475.829 115.708 475.686 115.385 475.535 115.108L475.399 114.83C475.286 114.605 475.166 114.387 475.045 114.17L474.797 113.72C474.541 113.254 474.277 112.797 473.998 112.339C473.682 111.814 473.358 111.304 473.026 110.801L472.981 110.733C472.74 110.366 472.484 109.983 472.228 109.653L472.077 109.435C471.776 109.015 471.467 108.602 471.151 108.19L471.105 108.13C471.007 108.01 470.902 107.89 470.804 107.762C470.601 107.514 470.405 107.259 470.194 107.012L470.081 106.869L469.651 106.381L469.177 105.834L468.996 105.639C468.838 105.473 468.68 105.301 468.514 105.136L468.107 104.701C468.024 104.618 467.941 104.543 467.866 104.461L467.339 103.943C467.218 103.83 467.098 103.703 466.97 103.59C466.841 103.478 466.774 103.41 466.676 103.32L466.133 102.832L465.809 102.54L465.44 102.232L464.905 101.789L464.627 101.557L464.16 101.204L463.647 100.814C463.579 100.769 463.512 100.709 463.436 100.664C463.225 100.506 463.014 100.364 462.804 100.221L462.359 99.9135L462.246 99.8385C461.862 99.5834 461.493 99.3283 461.071 99.0882L460.98 99.0357C460.619 98.8181 460.227 98.608 459.888 98.4129C459.798 98.3604 459.707 98.3078 459.609 98.2628C459.308 98.0978 459.007 97.9477 458.705 97.7976L458.359 97.6325L457.892 97.4149L457.53 97.2499L456.942 97.0023L456.521 96.8297L456.355 96.7547C455.963 96.6046 455.601 96.462 455.18 96.3345C454.78 96.1994 454.381 96.0794 453.982 95.9593H453.824C453.68 95.9143 453.537 95.8843 453.387 95.8468L452.776 95.6817C452.671 95.6817 452.566 95.6442 452.468 95.6142L451.925 95.5016L451.511 95.4191C451.368 95.4191 451.225 95.3741 451.081 95.3516L450.531 95.2615L450.245 95.2165L449.733 95.164L449.1 95.0964H448.874C448.701 95.0964 448.528 95.0964 448.354 95.0964H447.669H447.465C447.307 95.0964 447.156 95.0964 446.998 95.0964C446.84 95.0964 446.456 95.0964 446.177 95.0964H445.951L445.047 95.164H444.934C444.701 95.164 444.475 95.164 444.249 95.2315L443.819 95.299L443.495 95.344C443.096 95.4116 442.742 95.4791 442.32 95.5616H442.282L441.966 95.6367C441.642 95.7192 441.318 95.7942 440.994 95.8843L440.527 96.0268L439.909 96.2144L439.759 96.2745C439.442 96.3795 439.126 96.4996 438.817 96.6196C438.666 96.6796 438.516 96.7322 438.365 96.7997C437.905 96.9873 437.453 97.1974 437.009 97.4149L429.732 101.039C430.176 100.821 430.628 100.619 431.088 100.424L431.54 100.251C431.848 100.124 432.157 100.004 432.474 99.8985C432.79 99.7935 432.986 99.7335 433.227 99.6509L433.694 99.5084C434.011 99.4183 434.335 99.3433 434.666 99.2683L434.975 99.1932C435.382 99.1032 435.781 99.0282 436.188 98.9606L436.519 98.9156L437.627 98.7805H437.747C438.116 98.7805 438.501 98.728 438.877 98.713H439.698H440.361H441.047L441.8 98.7655L442.433 98.8256L443.232 98.9231L443.774 99.0132C444.06 99.0582 444.339 99.1107 444.625 99.1707L445.168 99.2833L446.087 99.5084L446.524 99.6209C446.976 99.7485 447.42 99.8835 447.872 100.041C448.324 100.191 448.776 100.364 449.221 100.536L449.643 100.709L450.592 101.122L451.059 101.347C451.473 101.542 451.895 101.744 452.309 101.969C452.724 102.195 453.228 102.48 453.68 102.72L453.763 102.765C454.208 103.027 454.637 103.305 455.067 103.59L455.504 103.898C455.79 104.093 456.069 104.288 456.355 104.498L456.86 104.881L457.613 105.466L458.155 105.916C458.389 106.111 458.622 106.306 458.848 106.509L459.391 106.997L460.054 107.627L460.581 108.137L461.229 108.812L461.711 109.323C461.93 109.563 462.148 109.81 462.359 110.073C462.57 110.336 462.645 110.396 462.788 110.568C463.037 110.861 463.278 111.153 463.542 111.461L463.836 111.829C464.175 112.256 464.506 112.699 464.822 113.142L464.973 113.352C465.244 113.735 465.508 114.102 465.772 114.515C466.035 114.928 466.42 115.52 466.736 116.016C467.015 116.473 467.278 116.938 467.542 117.411L467.791 117.861C467.956 118.169 468.122 118.477 468.28 118.792C468.439 119.107 468.567 119.355 468.702 119.64L469.071 120.39L469.463 121.253C469.569 121.493 469.674 121.733 469.772 122.003C470.073 122.716 470.36 123.429 470.623 124.157C470.721 124.419 470.812 124.689 470.902 124.952C470.992 125.215 471.098 125.515 471.188 125.8C471.279 126.085 471.437 126.595 471.557 126.993L471.678 127.383C471.829 127.901 471.964 128.426 472.1 128.944C472.1 129.086 472.16 129.221 472.198 129.364C472.288 129.747 472.379 130.114 472.461 130.534C472.507 130.715 472.544 130.887 472.574 131.067C472.65 131.442 472.725 131.817 472.793 132.2C472.793 132.365 472.853 132.53 472.876 132.688C472.959 133.191 473.034 133.693 473.102 134.189V134.316C473.17 134.856 473.23 135.404 473.283 135.944C473.283 136.124 473.283 136.304 473.283 136.477C473.32 136.852 473.343 137.227 473.365 137.603C473.365 137.813 473.365 138.023 473.365 138.233C473.365 138.578 473.365 138.931 473.365 139.283C473.365 139.493 473.365 139.696 473.365 139.906C473.365 140.266 473.365 140.656 473.365 140.994C473.365 141.182 473.365 141.377 473.365 141.564C473.365 142.037 473.328 142.51 473.29 142.982C473.294 143.052 473.294 143.122 473.29 143.192C473.29 143.733 473.2 144.273 473.139 144.813C473.139 144.963 473.139 145.121 473.079 145.271C473.034 145.654 472.981 146.021 472.928 146.426L472.838 146.982C472.778 147.349 472.71 147.732 472.635 148.077C472.635 148.25 472.574 148.43 472.537 148.602C472.424 149.12 472.311 149.638 472.183 150.148C472.055 150.658 471.896 151.213 471.738 151.731C471.738 151.881 471.648 152.024 471.603 152.166C471.49 152.527 471.377 152.917 471.256 153.224C471.181 153.427 471.113 153.63 471.038 153.825C470.962 154.02 470.819 154.417 470.699 154.703C470.578 154.988 470.525 155.13 470.435 155.34C470.344 155.55 470.209 155.866 470.088 156.128L469.764 156.826C469.651 157.059 469.531 157.291 469.41 157.524C469.29 157.756 469.132 158.056 468.981 158.319C468.83 158.582 468.755 158.732 468.634 158.934C468.514 159.137 468.258 159.557 468.069 159.865C467.941 160.052 467.828 160.247 467.7 160.435C467.572 160.623 467.572 160.623 467.512 160.713C467.293 161.035 467.067 161.343 466.841 161.651L466.706 161.831C466.42 162.213 466.126 162.581 465.817 162.941C465.508 163.301 465.199 163.646 464.883 163.984C464.815 164.052 464.747 164.112 464.687 164.179C464.446 164.434 464.197 164.674 463.934 164.929L463.632 165.215C463.399 165.432 463.165 165.642 462.924 165.845L462.645 166.085C462.324 166.355 461.992 166.618 461.651 166.873L461.508 166.978C461.214 167.195 460.913 167.398 460.611 167.601L460.28 167.818L459.526 168.298L459.202 168.486C458.841 168.689 458.449 168.891 458.103 169.079L465.38 165.447C465.757 165.267 466.133 165.065 466.48 164.862L466.804 164.667C467.067 164.517 467.331 164.352 467.557 164.194L467.889 163.977C468.19 163.774 468.484 163.564 468.778 163.346L468.921 163.249C469.26 162.994 469.591 162.731 469.923 162.453L470.194 162.221L470.902 161.591L471.203 161.305C471.459 161.065 471.701 160.818 471.957 160.555L472.153 160.352L472.213 160.3C472.507 159.977 472.8 159.647 473.087 159.317C473.373 158.979 473.644 158.634 473.923 158.274L473.976 158.207L474.104 158.019C474.337 157.719 474.556 157.404 474.774 157.089L474.962 156.811C475.015 156.736 475.06 156.676 475.106 156.601L475.332 156.233C475.528 155.933 475.716 155.625 475.904 155.303C475.949 155.22 476.002 155.145 476.055 155.055C476.108 154.965 476.183 154.815 476.251 154.695L476.68 153.892L476.853 153.57C476.914 153.449 476.966 153.322 477.027 153.194C477.087 153.067 477.245 152.737 477.358 152.504C477.471 152.271 477.471 152.264 477.524 152.144L477.705 151.709C477.788 151.499 477.878 151.289 477.968 151.078C478.059 150.868 478.059 150.868 478.096 150.756C478.134 150.643 478.232 150.388 478.3 150.201C478.368 150.013 478.451 149.803 478.518 149.6L478.609 149.36C478.699 149.09 478.782 148.812 478.865 148.542C478.91 148.392 478.963 148.25 479.008 148.107C479.053 147.965 479.008 148.032 479.008 147.995C479.144 147.539 479.272 147.074 479.392 146.599V146.516C479.505 146.089 479.603 145.654 479.701 145.218L479.746 144.978C479.784 144.798 479.814 144.626 479.852 144.446C479.889 144.265 479.935 144.04 479.972 143.83C480.01 143.62 480.025 143.515 480.048 143.358L480.138 142.802C480.138 142.682 480.176 142.555 480.198 142.435C480.198 142.172 480.259 141.909 480.296 141.639C480.296 141.489 480.296 141.339 480.349 141.189V141.032C480.402 140.559 480.439 140.079 480.477 139.598C480.53 139.336 480.53 139.283 480.567 139.216Z" fill="#505050"/>
<path d="M452.302 100.694C444.685 96.6346 436.549 96.1544 429.4 99.3508C421.686 102.795 416.096 109.968 413.678 119.557C408.954 138.233 418.138 160.367 434.131 168.906C438.473 171.32 443.392 172.51 448.362 172.35C451.357 172.214 454.299 171.514 457.033 170.287C464.755 166.843 470.337 159.67 472.755 150.08C477.516 131.367 468.303 109.233 452.302 100.694ZM469.079 148.82C466.947 157.254 462.035 163.564 455.247 166.595C452.842 167.677 450.252 168.293 447.616 168.411C443.246 168.562 438.918 167.525 435.095 165.41C421.015 157.906 412.939 138.398 417.098 121.988C419.222 113.555 424.142 107.244 430.929 104.213C437.22 101.399 444.377 101.819 451.081 105.398C465.161 112.909 473.23 132.388 469.079 148.82Z" fill="#C6C6C6"/>
<g style="mix-blend-mode:multiply" opacity="0.19">
<path d="M492.975 303.808C499.936 301.084 511.846 300.807 519.583 303.17C523.35 304.318 525.399 305.879 525.761 307.492C526.098 307.331 526.445 307.19 526.8 307.072C530.642 305.744 536.632 305.684 540.172 306.937C543.713 308.19 543.472 310.276 539.63 311.596C535.788 312.917 529.791 312.984 526.25 311.739C525.515 311.512 524.837 311.131 524.262 310.621C523.269 311.379 522.167 311.981 520.992 312.407C514.039 315.138 502.121 315.408 494.384 313.052C486.647 310.696 486.022 306.539 492.975 303.808Z" fill="#70689C"/>
</g>
<path d="M531.192 297.235C531.599 300.237 535.479 297.37 535.434 295.052C530.273 279.467 524.827 266.854 518.672 261.722L516.623 228.475L497.857 223.561L507.771 266.697L531.192 297.235Z" fill="#E0AE81"/>
<path d="M500.87 304.483L496.471 306.096C493.05 306.269 491.272 305.999 490.406 307.342L490.158 307.725C489.291 309.068 489.954 309.75 491.951 310.321L500.87 312.182C503.484 312.707 504.132 311.844 504.75 310.268C504.75 310.268 505.119 308.302 503.296 305.976C502.241 304.656 502.309 304.551 500.87 304.483Z" fill="#505050"/>
<path d="M498.113 306.592C499.13 309.03 503.386 308.415 503.281 306.404C507.243 275.363 504.14 273.555 504.14 266.794C504.14 259.246 505.466 251.075 510.588 236.676L505.774 237.532C498.093 238.884 492.516 245.565 492.583 253.334C492.757 272.564 493.954 287.766 498.113 306.592Z" fill="#E0AE81"/>
<path d="M493.841 224.933L491.664 265.541C491.664 265.541 506.272 277.584 523.704 262.007C519.734 256.552 519.131 249.529 519.538 242.033C520.992 234.98 519.101 229.218 516.984 224.198L493.841 224.933Z" fill="#C6C6C6"/>
<path d="M505.33 197.591L505.805 197.479C507.413 197.086 508.402 195.474 508.019 193.87L505.835 184.866C505.441 183.263 503.822 182.278 502.211 182.66L501.737 182.772C500.128 183.165 499.139 184.776 499.522 186.381L500.343 195.385C500.727 196.938 503.725 197.974 505.33 197.591Z" fill="#E0AE81"/>
<path d="M516.984 224.198C516.864 217.077 516.6 215.569 517.692 207.451C518.062 204.734 517.851 203.932 518.077 201.193C518.468 196.376 516.171 187.687 508.283 190.096L507.575 190.606C506.407 190.934 505.278 191.387 504.207 191.956C492.696 198.124 488.319 198.904 490.248 206.213C490.836 211.705 495.386 213.206 493.864 224.926C496.35 232.744 514.43 229.863 516.984 224.198Z" fill="#0B2B6F"/>
<path d="M507.605 189.466C508.056 189.356 508.533 189.477 508.876 189.788C509.219 190.1 509.384 190.561 509.315 191.019C509.083 192.501 507.997 193.709 506.543 194.103C504.206 194.806 501.723 194.878 499.348 194.313C499.167 194.3 499.018 194.164 498.989 193.985C498.961 193.806 499.059 193.631 499.228 193.562C500.87 192.565 504.712 190.209 507.605 189.466Z" fill="#FFFCFA"/>
<path d="M531.222 297.498L532.307 302.082C532.066 305.504 531.554 307.252 532.827 308.272L533.174 308.565C534.424 309.585 535.69 308.925 536.006 307.064L538.733 298.721C538.986 296.98 538.069 295.279 536.473 294.526C536.473 294.526 535.155 293.776 533 295.209C531.599 296.155 531.471 296.035 531.222 297.498Z" fill="#505050"/>
<path d="M500.689 308.16L495.009 307.935C494.709 307.913 494.461 307.695 494.401 307.401C494.341 307.108 494.485 306.811 494.753 306.674L498.264 304.506L500.689 308.16Z" fill="#E0AE81"/>
<path d="M534.341 294.549C534.341 294.549 533.023 301.204 532.307 302.052L530.801 296.409L531.727 293.063L534.341 294.549Z" fill="#E0AE81"/>
<path d="M519.839 240.24C519.839 240.24 517.888 243.887 516.397 243.992C517.463 244.066 518.529 243.837 519.47 243.331L519.839 240.24Z" fill="#818181"/>
<path d="M491.664 265.541L493.841 224.933L499.115 227.935C499.115 227.935 495.439 263.95 498.806 269.09C496.204 268.412 493.773 267.204 491.664 265.541Z" fill="#818181"/>
<path d="M468.8 202.971C469.775 201.672 471.622 201.403 472.929 202.371L474.639 203.632C475.941 204.607 476.21 206.446 475.241 207.751C474.249 209.025 472.422 209.291 471.105 208.351L469.403 207.083C468.098 206.113 467.828 204.273 468.8 202.971Z" fill="#E0AE81"/>
<path d="M493.841 224.933C493.841 224.933 494.316 217.813 493.322 215.749C492.327 213.686 488.372 204.922 488.372 204.922L490.564 202.131C493.103 206.378 498.233 206.633 499.19 229.225C499.19 229.225 494.489 228.25 493.841 224.933Z" fill="#092257"/>
<path d="M497.149 207.263L489.532 221.519C488.972 222.573 487.922 223.28 486.732 223.406C485.542 223.532 484.367 223.062 483.596 222.15L472.296 208.839L475.912 204.299L483.234 211.938C483.573 212.286 484.063 212.442 484.542 212.355C485.02 212.268 485.423 211.948 485.615 211.503L490.052 201.125L497.149 207.263Z" fill="#0B2B6F"/>
<path d="M492.35 179.171C492.35 179.171 492.199 187.049 496.87 187.972C501.541 188.895 500.117 173.101 500.117 173.101L492.35 179.171Z" fill="#505050"/>
<path d="M504.78 173.101C503.462 171.247 501.676 171.022 500.147 172.23C498.49 171.652 495.83 172.981 494.324 175.434C493.073 177.49 493.57 183.793 494.745 186.817C495.3 187.985 496.559 188.653 497.842 188.46C500.26 188.257 500.855 188.295 501.804 187.86C505.262 186.291 505.368 186.809 506.483 184.393C508.163 180.784 506.701 175.817 504.78 173.101Z" fill="#E0AE81"/>
<path d="M498.701 174.204C497.48 175.554 501.88 184.033 506.355 187.477C506.355 187.477 513.413 186.044 511.093 178.225C508.193 168.471 503.771 173.101 503.771 173.101L498.701 174.204Z" fill="#505050"/>
<path d="M505.285 175.352C501.141 174.429 497.149 172.875 492.598 179.763C491.996 179.013 492.35 176.394 493.774 174.819C495.981 172.373 497.201 171.187 499.936 170.077L500.614 169.882C504.697 168.711 507.176 169.927 508.75 173.761C508.893 174.098 509.88 175.577 509.956 175.869L508.547 175.652C509.157 177.948 507.65 174.601 505.285 175.352Z" fill="#505050"/>
<path d="M504.968 182.502C505.169 183.308 504.861 184.155 504.189 184.646C503.516 185.137 502.613 185.176 501.901 184.744C501.19 184.311 500.81 183.494 500.941 182.674C501.071 181.854 501.686 181.193 502.497 181.002C503.595 180.742 504.697 181.412 504.968 182.502Z" fill="#E0AE81"/>
<path d="M567.5 360.5L559 343.5L546.229 324.284L551.261 353.674L567.5 360.5L464.996 440L449.53 433.367L554.305 347.612L567.5 360.5Z" fill="white"/>
<path d="M564.73 358.88L548.239 352.51L543.207 323.112L553.663 296.377L536.615 289.144L499 393L516 400.5L553.663 296.377L564.73 358.88Z" fill="#5BA9E1"/>
<path d="M597.404 283.864L601.178 279.092L582.864 271.176L552.128 353.442L567.5 360.5" fill="#5BA9E1"/>
<path d="M516.336 399.557L499.846 393.187L494.813 363.789L505.27 337.062L488.221 329.822L449.53 433.367L464.996 440L505.27 337.062L516.336 399.557Z" fill="#5BA9E1"/>
<path d="M516 400.5L499 393L494.813 363.789L505.27 337.062L516 400.5Z" fill="#2177B5"/>
<path d="M567.5 360.5L548.076 352.625L543.044 323.234L553.5 296.5L567.5 360.5Z" fill="#2177B5"/>
<path d="M565.899 281.142L598.482 256.096L605.616 297.544L565.899 281.142Z" fill="#5BA9E1"/>
<path d="M136.25 382.442L97.8297 370.662C99.0953 368.561 98.7186 365.057 102.772 362.169L133.802 340.019C137.855 337.123 144.869 335.885 149.389 337.265L187.862 349.015C192.382 350.396 192.759 353.892 188.706 356.789L157.676 378.938C153.577 381.827 146.571 383.065 136.25 382.442Z" fill="white"/>
<path d="M175.387 344.978L175.703 353.652L164.968 354.95L84.0734 366.625L83.8474 358.649L175.387 344.978Z" fill="#061940"/>
<path d="M126.253 382.757L87.78 371.007C83.2599 369.626 82.8833 366.13 86.9363 363.234L117.967 341.084C122.02 338.188 129.033 336.95 133.553 338.33L172.027 350.08C176.547 351.461 176.924 354.958 172.871 357.854L141.84 380.004C137.757 382.892 130.773 384.138 126.253 382.757Z" fill="#061940"/>
<path d="M125.937 373.618L87.4711 361.868C82.9511 360.488 82.5668 356.991 86.6274 354.095L117.65 331.945C121.711 329.056 128.724 327.818 133.244 329.199L171.718 340.949C176.238 342.33 176.615 345.826 172.562 348.715L141.524 370.865C137.471 373.761 130.457 374.999 125.937 373.618Z" fill="#0B2B6F"/>
<path d="M120.882 343.748L119.3 357.276L147.189 347.282" stroke="white" stroke-width="1.57411" stroke-linecap="round" stroke-linejoin="round"/>
</svg>
